<?xml version="1.0" encoding="UTF-8"?>
<svg id="Layer_1" data-name="Layer 1" xmlns="http://www.w3.org/2000/svg" viewBox="0 0 1024 1024">
  <defs>
    <style>
      .cls-1 {
        fill: #172f3e;
      }

      .cls-1, .cls-2 {
        stroke-width: 0px;
      }

      .cls-2 {
        fill: #fbfbfc;
      }
    </style>
  </defs>
  <path class="cls-1" d="M568.41,1021.83c-8.22.12-16.65-.89-24.61.58-17,3.14-34.02.46-50.98,1.58-6.95-2.85-14.21-.97-21.31-1.46-5.74-.4-11.42-1.67-17.14-2.5-3.82-.56-7.63-1.31-11.47-1.49-17.73-.8-34.87-5.2-51.87-9.45-19.24-4.82-38.61-9.61-57-17.46-10.75-4.59-21.86-8.36-32.59-13.01-8.9-3.85-17.58-8.25-26.18-12.75-12.82-6.72-25.7-13.39-38.15-20.76-10.4-6.15-20.31-13.15-30.3-19.98-7.47-5.11-14.89-10.31-22-15.89-7.13-5.6-13.99-11.57-20.73-17.65-8.23-7.44-16.49-14.89-24.22-22.83-6.76-6.95-12.81-14.59-19.19-21.92-2.83-3.26-5.89-6.34-8.51-9.76-7.85-10.24-15.74-20.45-23.2-30.97-5.87-8.26-11.46-16.77-16.58-25.51-7.25-12.35-14.18-24.9-20.82-37.58-5.15-9.83-10.26-19.76-14.3-30.08-5.45-13.9-10.34-28.07-14.57-42.39-4.74-16.05-9.67-32.1-12.03-48.78-1.04-7.4-3.26-14.63-4.59-22.01-.95-5.28-1.25-10.67-1.9-16-.78-6.36-1.63-12.71-2.45-19.06-.06-.43-.24-.85-.27-1.27-.46-6.45-1.25-12.9-1.29-19.36-.16-21.46-.31-42.93.07-64.39.15-8.32,1.74-16.61,2.65-24.92.49-4.48.78-8.99,1.39-13.45,1.24-9.13,2.21-18.33,4.06-27.34,3.1-15.12,6.43-30.21,10.35-45.14,2.8-10.63,6.65-21,10.19-31.43,2.57-7.57,5.37-15.06,8.16-22.56,1.36-3.65,2.69-7.33,4.41-10.81,4.61-9.33,9.31-18.62,14.18-27.81,4.06-7.66,8.13-15.33,12.7-22.68,7.98-12.83,16.11-25.58,24.64-38.05,6.19-9.04,13.03-17.64,19.77-26.28,3.32-4.25,6.99-8.24,10.64-12.21,6.47-7.03,12.88-14.14,19.64-20.89,6.76-6.75,13.63-13.44,20.96-19.55,12.9-10.74,25.92-21.32,39.24-31.58,15.14-11.66,31.2-21.77,47.31-31.79,13.46-8.37,27.71-15.63,42.08-22.36,13.9-6.5,28.36-11.84,42.68-17.41,9.27-3.61,18.6-7.2,28.15-9.97,14.06-4.08,28.29-7.58,42.53-11.01,10.2-2.45,20.49-4.56,30.8-6.47,4.85-.9,9.86-.84,14.77-1.42,6.58-.78,13.14-1.76,19.7-2.65.43-.06.87-.13,1.3-.14,10.62-.43,21.25-1.01,31.87-1.24,10.53-.23,21.17-1.07,31.56.14,10.52,1.22,21.13.88,31.56,2.48,19.28,2.96,38.54,5.76,57.62,10.2,17.72,4.12,35.27,8.63,52.41,14.56,12.68,4.39,24.99,9.83,37.44,14.87,6.63,2.69,13.39,5.15,19.75,8.38,9.86,5.01,19.48,10.53,29.12,15.96,8.11,4.56,16.29,9.04,24.13,14.03,10.2,6.5,20.34,13.16,30.07,20.33,10.9,8.03,21.7,16.3,31.86,25.23,11.62,10.21,23.18,20.65,33.41,32.19,5.8,6.54,12.31,12.32,17.96,18.91,5.88,6.86,11.64,13.86,17.05,21.09,7.86,10.51,15.73,21.06,22.91,32.03,6.97,10.66,13.21,21.81,19.52,32.88,4.85,8.51,9.75,17.03,13.85,25.91,5.81,12.59,11.22,25.4,16.23,38.33,8.36,21.57,15.25,43.64,20.33,66.21,2.35,10.44,4.07,21.02,5.95,31.56,1.43,8,2.85,16.01,3.91,24.06.78,5.98,1.08,12.03,1.4,18.06.54,10.16,1.15,20.32,1.33,30.49.23,13.36.27,26.73.01,40.08-.19,10.1-.86,20.19-2.71,30.18-.86,4.63-.85,9.41-1.39,14.1-.77,6.83-1.27,13.72-2.61,20.44-2.77,13.88-5.39,27.84-9.23,41.44-4.87,17.22-10.36,34.31-16.57,51.1-5.62,15.22-12.13,30.15-19.02,44.85-10.7,22.81-23.76,44.33-38.06,65.06-8.07,11.69-16.29,23.32-25.14,34.42-12.63,15.85-26.98,30.19-41.57,44.24-5.26,5.07-11.35,9.27-16.98,13.96-5.63,4.68-11.12,9.53-16.74,14.22-4.96,4.14-9.79,8.5-15.07,12.19-11.5,8.03-23.15,15.88-34.96,23.45-7.29,4.68-14.91,8.85-22.51,13.02-8.78,4.82-17.48,9.88-26.61,13.94-16.64,7.4-33.25,15.08-50.46,20.89-18.75,6.34-38.11,10.99-57.35,15.8-11.42,2.85-23.09,4.77-34.71,6.73-7.84,1.32-15.79,1.95-23.68,2.89,0,.15-.02.29-.03.44ZM419.91,251.72h-.05c0-29.35,0-58.7,0-88.05,0-19.06,0-38.11.03-57.17,0-5.19.06-5.2,5.21-6.24,3.86-.78,7.73-1.58,11.61-2.28,8.84-1.59,17.72-2.98,26.52-4.74,3.41-.68,4.42.38,4.08,3.56-.12,1.08,0,2.19,0,3.28-.02,27.38-.03,54.76-.07,82.14-.01,12.27-.17,24.53-.03,36.8.04,3.19-.67,5.45-3.69,6.85-1.16.54-2.14,1.51-3.14,2.36-12.87,10.93-15,28.47-5.09,41.78,9.36,12.57,28.56,15.81,41.98,7.16,17.1-11.03,19.58-38.23.35-51.04-2.62-1.75-4.7-3.15-4.69-7.03.13-41.61.06-83.23-.12-124.84-.01-3.07,1.06-3.85,3.7-3.85,1.75,0,3.5-.22,5.26-.27,20.86-.58,41.6.6,62.33,3.12,33.68,4.09,66.24,12.64,97.75,24.77,59.19,22.77,110.11,58.15,154.24,103.47,18.85,19.36,35.82,40.2,50.48,62.9.92,1.43,1.51,3.37,3.9,1.75,10.15-6.87,20.33-13.7,30.5-20.54,2.22-1.49,2.69-3.06.77-5.34-2.11-2.5-3.87-5.3-5.77-7.97-44.9-63.16-100.8-113.85-169.64-150.13-62.05-32.69-127.95-50.63-198.06-52.91-35.85-1.17-71.36,2.05-106.55,9.01-58.29,11.53-111.82,34.68-161.72,66.41-39.09,24.86-73.58,55.15-103.49,90.56-31.01,36.7-56.32,76.94-74.54,121.42-19.68,48.03-30.18,98.14-31.88,149.97-1,30.43-.15,60.81,3.62,91.12,3.63,29.17,9.71,57.73,18.82,85.62,20.27,62.02,52.81,116.93,96.89,165.03,33.18,36.21,72.02,65.05,115.33,88.13,40.56,21.61,82.75,38.72,128.02,47.65,7.03,1.39,7.03,1.46,7.03-5.88,0-31.32,0-62.64,0-93.97,0-30.88,0-61.77-.06-92.65,0-2.93.23-5.43,2.6-7.68,10.18-9.65,20.16-19.51,30.29-29.21,1-.95,2.51-1.37,3.78-2.04.14,1.28.32,2.55.41,3.84.06.87.01,1.75.01,2.63-.03,56.51-.07,113.02-.09,169.53,0,19.06.04,38.11.08,57.17.01,5.44.01,5.72,5.51,6.35,10.67,1.21,21.35,2.54,32.07,2.98,39.59,1.62,78.71-1.86,117.56-10.05,76.64-16.15,144.76-49.51,203.73-100.71,64.88-56.34,111.29-125.32,137.16-207.53,10.39-33.03,17.15-66.8,20.25-101.36,2.87-31.99,2.72-63.92-.78-95.74-3.62-32.86-10.65-65.06-21.22-96.51-7.69-22.87-17.48-44.71-28.82-65.93-2.4-4.49-2.51-4.55-7.03-1.75-8.74,5.42-17.36,11.04-26.12,16.42-2.65,1.63-3.74,2.9-1.87,6.13,3.83,6.6,7.48,13.36,10.56,20.33,20.63,46.65,32.36,95.45,35.7,146.36,2.94,44.93-1.09,89.1-12.11,132.75-22.54,89.32-69.69,162.94-140.75,221.49-27.68,22.81-57.63,41.88-90.33,56.79-34.87,15.9-71.23,26.67-108.9,33.24-9.27,1.62-18.62,2.89-27.97,4.01-5.52.66-5.6.37-5.65-4.96-.06-6.13-.01-12.27-.02-18.4-.03-52.35-.02-104.7-.19-157.05-.01-4.52,1.18-7.83,4.67-10.8,5-4.26,9.48-9.11,14.35-13.53,3.44-3.12,4.89-6.55,4.89-11.42,0-77.53.39-155.06.38-232.58,0-99.44-.23-198.88-.57-298.32-.02-6.78,1.32-11.63,6.94-16.25,10.42-8.55,13.24-22.77,8.31-34.61-5.08-12.18-18.99-21.16-31.8-20.52-13.77.69-26.34,11.45-29.84,25.55-3.19,12.85,2.62,26.78,14.97,33.35,4.76,2.53,5.61,5.42,5.61,10.2-.16,111.27-.2,222.54-.22,333.81-.02,63.08-.01,126.16.11,189.24,0,3.8-.87,6.61-3.8,9.15-5.46,4.74-10.54,9.92-15.97,14.69-3.17,2.78-4.51,5.78-4.51,10.17.12,61.77.03,123.54-.01,185.3,0,1.53-.08,3.07.01,4.6.15,2.73-.87,4-3.8,3.91-10.08-.33-20.17-.58-30.25-.7-3.44-.04-4.25-1.51-4.19-4.78.2-11.17.09-22.34.06-33.51-.12-58.7-.18-117.4-.47-176.1-.03-5.69,1.19-9.89,5.96-13.47,6.12-4.6,11.47-10.2,17.47-14.96,3.58-2.85,4.88-5.9,4.86-10.53-.21-61.77-.23-123.54-.15-185.3,0-4.1-1.25-7.02-4.19-9.75-8.03-7.45-15.97-14.99-23.78-22.67-19.52-19.22-38.87-38.62-58.48-57.74-3.09-3.02-4.33-5.96-4.32-10.24.14-47.75.09-95.5.09-143.25ZM797.91,500.9v-.17c9.87,0,19.74,0,29.62,0,24.35,0,48.7.03,73.05.02,5.07,0,5.12-.06,5.17-4.89.06-6.13-.1-12.27.13-18.4.09-2.46-.12-3.35-3.02-3.34-46.51.16-93.02.17-139.52.22-25.89.03-51.77.12-77.66.03-3.53-.01-6.25.82-8.72,3.43-4.51,4.77-9.35,9.25-13.98,13.91-8.95,9.02-17.84,18.11-26.82,27.11-.67.67-1.79.91-2.7,1.34-.09-.84-.22-1.68-.26-2.52-.04-.87,0-1.75,0-2.63.01-60.45.02-120.91.04-181.36,0-.88.06-1.76,0-2.63-.23-3.17.64-5.45,4.13-6.37,1.86-.49,3.6-1.59,5.27-2.62,12.88-7.89,19.76-24.75,15.54-37.96-4.85-15.19-22.74-26.12-37.75-23.03-12.73,2.62-21.11,10.38-25.14,22.48-4.06,12.19-1.75,23.53,7.27,32.78,3.68,3.77,4.78,7.36,4.77,12.52-.15,133.83-.14,267.66.08,401.49.01,6.53-1.44,10.51-7.31,14.24-12.66,8.04-17.76,24.3-13.49,38.77,4.3,14.58,17.22,24.7,32.44,25.4,15.98.74,29.17-7.81,34.92-22.62,5.99-15.44,2.52-31.85-11.22-40.93-8.36-5.52-9.66-11.67-9.62-20.4.25-53.44.15-106.89.01-160.33-.01-4.26.9-7.54,4.18-10.41,4.12-3.6,7.95-7.54,11.82-11.42,11.61-11.64,23.27-23.22,34.7-35.04,4.5-4.65,9.23-6.93,16.04-6.85,32.68.37,65.37.17,98.06.17ZM660.7,627.97h.09c0,11.61.64,23.26-.21,34.8-.61,8.32,2.45,13.84,8.21,19.29,29.75,28.18,59.23,56.64,88.82,84.98,8.7,8.34,17.48,16.59,26.15,24.96,2.33,2.25,4.03,2.62,6.41-.13,3.58-4.13,7.61-7.88,11.44-11.8,3.65-3.74,3.73-3.83.02-7.44-15.08-14.66-30.14-29.35-45.35-43.88-21.54-20.58-43.19-41.04-64.79-61.56-2.54-2.41-4.65-4.67-4.6-8.85.25-20.36.15-40.73-.04-61.09-.03-3.4,1.09-5.8,3.45-8.03,6.53-6.17,13.22-12.2,19.35-18.74,3.7-3.96,7.89-4.95,12.92-4.93,17.77.06,35.53-.05,53.3-.08q6.07-.01,8.39,5.48c5.79,13.78,18.81,23.92,35.66,22.98,14.97-.83,27.15-11.19,31.23-25.86,4.05-14.55-1.22-29.78-13.28-38.41-16.39-11.73-35.84-9.44-49.29,6.37-2.94,3.46-5.79,4.43-9.97,4.41-23.47-.11-46.94.07-70.4-.06-3.35-.02-5.77.89-8.08,3.22-12.18,12.3-24.41,24.54-36.76,36.68-2.08,2.05-2.7,4.18-2.69,6.96.09,13.58.04,27.15.04,40.73ZM686.57,280.5c.11,0,.22,0,.33,0,0,8.98.14,17.96-.08,26.93-.08,3.12.72,5.49,2.99,7.54,1.79,1.61,3.39,3.42,5.13,5.09,24.03,23.05,48.09,46.09,72.11,69.14,5.59,5.36,5.55,5.39,11.32-.24,1.73-1.68,3.54-3.27,5.24-4.98,2.42-2.43,6.74-5.02,6.64-7.38-.11-2.66-4.13-5.26-6.65-7.68-22.91-22-45.83-44-68.87-65.86-2.93-2.78-4.23-5.54-4.14-9.65.28-12.91.31-25.84,0-38.75-.11-4.51,1.35-6.78,5.32-9.1,25.96-15.17,26.14-49.82.3-65.06-13.48-7.95-27.54-8.72-40.86.46-13.55,9.34-19.15,22.56-15.9,38.76,2.57,12.8,10.43,22.01,22.25,27.44,3.77,1.73,5.12,3.63,4.96,7.74-.34,8.52-.1,17.07-.1,25.61ZM832.86,649.94v-.19c13.15,0,26.3-.08,39.46.06,3.02.03,4.81-.72,5.89-3.76,2.04-5.75,4.55-11.33,6.73-17.03,1.55-4.04,1.46-4.08-3.06-4.14-1.1-.01-2.19.01-3.29.02-27.18.09-54.36.07-81.54.38-4.29.05-6.74-1.18-8.92-4.85-1.85-3.12-4.54-5.99-7.44-8.21-11.25-8.62-23.65-10.22-36.32-3.76-12.41,6.32-18.61,17.33-18.47,30.95.15,15.1,11.14,27.33,25.91,30.72,13.95,3.21,29.43-3.53,36.32-16.37,1.67-3.11,3.45-3.89,6.59-3.87,12.71.11,25.43.05,38.14.05ZM766.33,439.53v-.08c9.86,0,19.72,0,29.58,0,6.79,0,13.58.02,20.37,0,1.76,0,3.62.17,3.58-2.53-.1-6.78-.04-13.56-.29-20.34-.03-.81-1.44-1.98-2.41-2.25-1.43-.39-3.04-.12-4.57-.12-30.23,0-60.47-.05-90.7.07-3.61.01-5.92-.68-7.67-4.27-2.75-5.66-7.53-9.55-13.34-12.11-15.27-6.74-31.3.05-37.89,15.46-6.11,14.28,1.73,32.57,17.22,36.84,11.83,3.27,22.64,1.23,31.42-7.7,2.25-2.28,4.32-3.06,7.36-3.03,15.77.13,31.55.06,47.32.06ZM483.64,316.67c-17.24-1.1-38.56,14.79-38.76,37.48-.18,21.17,17.85,40.2,38.83,39.98,22.18-.23,38.74-17.26,39-38.77.25-21.05-17.63-38.55-39.08-38.69ZM677.67,814.96c-1.14,16.11,13.35,37.19,37.02,37.07,20.38-.1,37.09-16.95,36.98-37.32-.12-20.31-17.43-36.96-38.27-36.8-19.43.15-35.77,17.09-35.73,37.05ZM764.87,293.76c0,17.38,14.76,32.22,32.2,32.38,17.44.16,32.35-15.12,32.21-33-.13-16.7-15.66-31.23-33.44-31.29-16.57-.06-30.98,14.78-30.98,31.91ZM870.56,407.67c-10.31-.35-21.92,6.49-22.53,22.22-.48,12.12,10.21,22.43,22.53,22.43,12.03,0,21.81-10,21.81-22.32,0-12.25-9.84-22.34-21.81-22.34ZM829.23,727.57c12.08.05,22.08-9.87,21.74-22.32-.38-14-9.55-22.13-21.59-22.5-11.53-.36-22.25,11.17-22.21,23.16.04,11.32,10.52,21.61,22.05,21.66ZM597.46,869.52c-.09,11.97,9,21.29,20.92,21.45,11.49.16,21.33-9.48,21.55-21.11.23-12.2-9.15-22.11-20.99-22.18-11.75-.07-21.39,9.74-21.49,21.85ZM844.97,380.35c11.43-.1,21.24-10.09,21.15-21.54-.09-11.17-10.46-21.91-21.22-21.97-11.25-.06-21.57,10.63-21.45,22.23.11,11.36,10.23,21.37,21.52,21.27ZM675.11,369.69c0-.06,0-.13.01-.19.22,0,.44.01.66,0,3.63-.27,8.31.7,10.54-1.2,1.79-1.52.75-6.53.69-9.99-.07-3.84.95-9.18-1.1-11.11-2.16-2.03-7.39-.91-11.28-.94-3.46-.03-8.45-1.05-10,.75-1.91,2.22-1.19,6.89-1.2,10.51-.02,3.85-.9,8.79,1.09,11.2,1.59,1.93,6.92.77,10.59.99ZM620.7,235.75c0-.08.01-.17.02-.25,3.06,0,6.12-.04,9.17.01,1.88.03,2.81-.68,2.79-2.66-.05-5.89-.03-11.78-.03-17.67,0-2.15-1-3.16-3.2-3.13-3.28.04-6.55-.04-9.83-.06q-10.5-.05-10.5,10.09c0,.65-.03,1.31,0,1.96.19,3.64-.94,8.62.98,10.54,1.96,1.96,6.93.9,10.59,1.16ZM622.5,157.12c-.06,0-.12,0-.18,0,.17,3.69-1.06,9.01.86,10.66,2.35,2.01,7.34.99,11.2,1.19,2.18.11,4.37-.04,6.56.05,2.39.09,3.62-.7,3.59-3.35-.07-5.67.04-11.35.17-17.02.05-2.37-.66-3.7-3.31-3.65-5.25.09-10.5.09-15.74-.01-2.19-.04-3.24.67-3.17,2.97.09,3.05.02,6.11.02,9.17ZM692.95,741.97c-.15-.01-.3-.03-.46-.04,0-3.06-.07-6.12.02-9.18.07-2.24-.85-3.09-3.1-3.07-5.25.04-10.51-.04-15.77-.16-2.21-.05-3.22.94-3.23,3.09,0,3.06-.03,6.12-.02,9.18q.01,11.15,10.87,11.14c3.49,0,8.45,1.29,10.1-.47,1.99-2.12,1.17-6.87,1.57-10.48ZM781.44,226.98c-.31-3.65.7-8.7-1.29-10.55-2.04-1.9-7-.78-10.68-.78-11.05-.02-11.05.01-11.06,10.95q-.02,11.61,11.75,11.37,11.03-.22,11.28-11ZM900.47,557.65c-.22-4.29.89-9.3-.92-10.81-2.23-1.86-6.9-1.01-10.52-.97-3.65.04-8.68-.8-10.57,1.17-1.93,2-.95,6.97-.94,10.63,0,3.42-.83,8.14,1,9.89,1.87,1.79,6.54.8,9.98.77,3.67-.03,8.61.98,10.63-.95,2-1.9,1.06-6.9,1.33-9.74ZM503.74,440.8c3.42-.27,8.12.69,9.93-1.16,1.81-1.85.74-6.52.94-9.95.01-.22,0-.44,0-.66-.14-3.46,1.04-8.45-.75-9.99-2.2-1.9-6.89-1.07-10.5-1.16-3.47-.09-8.53-1.17-10.02.6-1.9,2.25-1.1,6.93-1.14,10.57-.03,3.65-1.01,8.62.92,10.57,1.94,1.96,6.93.91,10.63,1.18Z"/>
  <path class="cls-2" d="M419.91,251.72c0,47.75.05,95.5-.09,143.25-.01,4.28,1.23,7.23,4.32,10.24,19.61,19.13,38.96,38.52,58.48,57.74,7.8,7.68,15.75,15.22,23.78,22.67,2.94,2.72,4.19,5.64,4.19,9.75-.08,61.77-.06,123.54.15,185.3.02,4.63-1.28,7.69-4.86,10.53-6,4.76-11.35,10.36-17.47,14.96-4.77,3.58-5.98,7.78-5.96,13.47.29,58.7.36,117.4.47,176.1.02,11.17.13,22.34-.06,33.51-.06,3.26.75,4.73,4.19,4.78,10.09.12,20.17.37,30.25.7,2.93.1,3.95-1.18,3.8-3.91-.09-1.53-.01-3.07-.01-4.6.04-61.77.13-123.54.01-185.3,0-4.38,1.34-7.39,4.51-10.17,5.43-4.77,10.51-9.95,15.97-14.69,2.93-2.54,3.8-5.34,3.8-9.15-.12-63.08-.12-126.16-.11-189.24.03-111.27.06-222.54.22-333.81,0-4.78-.84-7.67-5.61-10.2-12.35-6.56-18.16-20.5-14.97-33.35,3.5-14.1,16.07-24.86,29.84-25.55,12.82-.64,26.73,8.33,31.8,20.52,4.93,11.84,2.11,26.06-8.31,34.61-5.63,4.62-6.97,9.47-6.94,16.25.34,99.44.56,198.88.57,298.32,0,77.53-.38,155.06-.38,232.58,0,4.87-1.46,8.29-4.89,11.42-4.86,4.42-9.35,9.27-14.35,13.53-3.49,2.98-4.68,6.28-4.67,10.8.16,52.35.15,104.7.19,157.05,0,6.13-.04,12.27.02,18.4.05,5.33.13,5.62,5.65,4.96,9.35-1.11,18.69-2.39,27.97-4.01,37.67-6.57,74.03-17.35,108.9-33.24,32.7-14.91,62.65-33.98,90.33-56.79,71.06-58.55,118.21-132.17,140.75-221.49,11.02-43.65,15.05-87.82,12.11-132.75-3.33-50.91-15.06-99.71-35.7-146.36-3.08-6.97-6.74-13.73-10.56-20.33-1.87-3.23-.78-4.51,1.87-6.13,8.76-5.38,17.38-11,26.12-16.42,4.52-2.81,4.64-2.74,7.03,1.75,11.33,21.22,21.12,43.06,28.82,65.93,10.58,31.45,17.6,63.65,21.22,96.51,3.51,31.82,3.66,63.75.78,95.74-3.11,34.56-9.86,68.34-20.25,101.36-25.87,82.21-72.27,151.19-137.16,207.53-58.96,51.2-127.08,84.56-203.73,100.71-38.85,8.19-77.97,11.67-117.56,10.05-10.71-.44-21.4-1.77-32.07-2.98-5.5-.62-5.5-.91-5.51-6.35-.04-19.06-.08-38.11-.08-57.17.02-56.51.06-113.02.09-169.53,0-.88.05-1.76-.01-2.63-.09-1.28-.27-2.56-.41-3.84-1.27.67-2.78,1.08-3.78,2.04-10.13,9.7-20.11,19.56-30.29,29.21-2.37,2.25-2.61,4.76-2.6,7.68.06,30.88.05,61.77.06,92.65,0,31.32,0,62.64,0,93.97,0,7.34,0,7.26-7.03,5.88-45.28-8.92-87.46-26.04-128.02-47.65-43.31-23.08-82.14-51.92-115.33-88.13-44.08-48.1-76.63-103.01-96.89-165.03-9.11-27.89-15.2-56.45-18.82-85.62-3.77-30.31-4.62-60.69-3.62-91.12,1.71-51.84,12.21-101.95,31.88-149.97,18.22-44.48,43.52-84.71,74.54-121.42,29.92-35.41,64.4-65.69,103.49-90.56,49.9-31.73,103.43-54.88,161.72-66.41,35.19-6.96,70.71-10.17,106.55-9.01,70.11,2.28,136.01,20.22,198.06,52.91,68.85,36.27,124.74,86.97,169.64,150.13,1.9,2.67,3.66,5.47,5.77,7.97,1.92,2.28,1.45,3.85-.77,5.34-10.17,6.84-20.35,13.67-30.5,20.54-2.39,1.62-2.98-.33-3.9-1.75-14.65-22.71-31.62-43.55-50.48-62.9-44.14-45.32-95.05-80.69-154.24-103.47-31.51-12.13-64.08-20.68-97.75-24.77-20.73-2.51-41.47-3.7-62.33-3.12-1.75.05-3.5.27-5.26.27-2.64,0-3.71.78-3.7,3.85.18,41.61.24,83.23.12,124.84-.01,3.87,2.06,5.28,4.69,7.03,19.24,12.8,16.76,40.01-.35,51.04-13.42,8.65-32.62,5.4-41.98-7.16-9.92-13.31-7.79-30.85,5.09-41.78,1-.85,1.98-1.83,3.14-2.36,3.03-1.4,3.73-3.66,3.69-6.85-.14-12.26.02-24.53.03-36.8.03-27.38.05-54.76.07-82.14,0-1.1-.11-2.2,0-3.28.34-3.19-.67-4.25-4.08-3.56-8.8,1.76-17.68,3.15-26.52,4.74-3.88.7-7.74,1.5-11.61,2.28-5.15,1.04-5.2,1.05-5.21,6.24-.03,19.06-.03,38.11-.03,57.17,0,29.35,0,58.7,0,88.05h.05ZM393.5,260.53c0-47.96,0-95.92,0-143.89,0-1.31-.11-2.64.03-3.94.38-3.39-1-4.41-4.15-3.28-4.93,1.77-9.89,3.49-14.81,5.29-66.87,24.49-125.61,61.31-174.1,113.89-41.04,44.5-72.6,94.46-90.93,152.48-9.33,29.52-15.88,59.58-18.51,90.34-3.49,40.74-1.56,81.32,6.28,121.57,6.79,34.84,16.29,68.79,31.11,101.14,23.41,51.08,56.36,95.19,98.67,132.06,47.32,41.23,101.53,70.47,161.33,89.44,4.94,1.57,4.97,1.5,5.08-3.88.04-1.75.02-3.5.02-5.26.02-47.74.1-95.49-.05-143.23-.02-4.99,1.33-8.5,5.07-11.92,27.37-24.95,54.5-50.15,81.83-75.14,2.82-2.58,4.29-5.09,4.05-8.97-.32-5.02-.11-10.07-.11-15.11,0-48.18-.06-96.36.11-144.54.02-4.34-1.24-7.36-4.38-10.23-6.45-5.92-12.67-12.11-18.89-18.29-21.29-21.16-42.5-42.42-63.86-63.51-2.91-2.87-3.87-5.83-3.86-9.84.13-48.4.08-96.8.08-145.2Z"/>
  <path class="cls-2" d="M797.91,500.9c-32.69,0-65.38.2-98.06-.17-6.8-.08-11.54,2.2-16.04,6.85-11.42,11.81-23.09,23.4-34.7,35.04-3.87,3.88-7.7,7.82-11.82,11.42-3.28,2.87-4.19,6.15-4.18,10.41.14,53.44.24,106.89-.01,160.33-.04,8.74,1.26,14.88,9.62,20.4,13.75,9.08,17.22,25.48,11.22,40.93-5.75,14.81-18.94,23.36-34.92,22.62-15.22-.7-28.13-10.82-32.44-25.4-4.27-14.47.83-30.73,13.49-38.77,5.87-3.73,7.32-7.71,7.31-14.24-.22-133.83-.23-267.66-.08-401.49,0-5.16-1.1-8.75-4.77-12.52-9.01-9.25-11.33-20.59-7.27-32.78,4.03-12.1,12.41-19.86,25.14-22.48,15.01-3.09,32.9,7.84,37.75,23.03,4.22,13.21-2.66,30.07-15.54,37.96-1.67,1.02-3.41,2.13-5.27,2.62-3.5.92-4.36,3.2-4.13,6.37.06.87,0,1.75,0,2.63-.01,60.45-.02,120.91-.04,181.36,0,.88-.04,1.75,0,2.63.04.84.17,1.68.26,2.52.91-.44,2.03-.67,2.7-1.34,8.97-9,17.86-18.09,26.82-27.11,4.63-4.67,9.47-9.14,13.98-13.91,2.47-2.61,5.19-3.44,8.72-3.43,25.89.09,51.77,0,77.66-.03,46.51-.05,93.02-.06,139.52-.22,2.91-.01,3.11.88,3.02,3.34-.23,6.12-.07,12.26-.13,18.4-.05,4.82-.1,4.88-5.17,4.89-24.35.01-48.7-.01-73.05-.02-9.87,0-19.74,0-29.62,0v.17ZM636.3,772.86c-.17-8.22-7.84-15.8-15.6-15.42-7.77.38-15.15,8.36-15.07,16.29.08,7.87,7.12,15.31,14.58,14.75,9.29-.7,16.21-6.8,16.09-15.62Z"/>
  <path class="cls-2" d="M660.7,627.97c0-13.58.05-27.15-.04-40.73-.02-2.77.6-4.91,2.69-6.96,12.34-12.14,24.57-24.38,36.76-36.68,2.31-2.33,4.73-3.24,8.08-3.22,23.47.13,46.94-.05,70.4.06,4.18.02,7.03-.95,9.97-4.41,13.45-15.81,32.9-18.1,49.29-6.37,12.06,8.64,17.33,23.86,13.28,38.41-4.08,14.67-16.26,25.03-31.23,25.86-16.85.93-29.87-9.2-35.66-22.98q-2.3-5.48-8.39-5.48c-17.77.03-35.53.14-53.3.08-5.03-.02-9.22.98-12.92,4.93-6.13,6.55-12.82,12.58-19.35,18.74-2.36,2.23-3.48,4.63-3.45,8.03.19,20.36.29,40.73.04,61.09-.05,4.18,2.07,6.44,4.6,8.85,21.6,20.52,43.26,40.97,64.79,61.56,15.21,14.53,30.27,29.22,45.35,43.88,3.71,3.61,3.63,3.7-.02,7.44-3.83,3.92-7.86,7.66-11.44,11.8-2.38,2.75-4.08,2.38-6.41.13-8.66-8.38-17.45-16.63-26.15-24.96-29.59-28.35-59.07-56.8-88.82-84.98-5.76-5.46-8.82-10.97-8.21-19.29.85-11.54.21-23.2.21-34.8h-.09ZM816.9,573.32c8.57.09,15.74-6.76,15.74-15.02,0-7.64-7.25-14.8-15.26-15.06-7.78-.26-15.82,7.5-15.8,15.26.02,7.75,7.24,14.74,15.32,14.82Z"/>
  <path class="cls-2" d="M686.57,280.5c0-8.54-.24-17.08.1-25.61.16-4.1-1.19-6-4.96-7.74-11.82-5.42-19.68-14.63-22.25-27.44-3.25-16.21,2.35-29.42,15.9-38.76,13.32-9.18,27.39-8.41,40.86-.46,25.84,15.24,25.67,49.89-.3,65.06-3.98,2.32-5.43,4.59-5.32,9.1.31,12.91.28,25.84,0,38.75-.09,4.11,1.21,6.87,4.14,9.65,23.04,21.86,45.96,43.86,68.87,65.86,2.52,2.42,6.53,5.02,6.65,7.68.1,2.37-4.21,4.95-6.64,7.38-1.7,1.71-3.52,3.3-5.24,4.98-5.77,5.63-5.73,5.6-11.32.24-24.03-23.06-48.08-46.09-72.11-69.14-1.74-1.67-3.34-3.48-5.13-5.09-2.28-2.05-3.07-4.42-2.99-7.54.22-8.97.08-17.95.08-26.93-.11,0-.22,0-.33,0Z"/>
  <path class="cls-2" d="M832.86,649.94c-12.71,0-25.43.06-38.14-.05-3.14-.03-4.92.76-6.59,3.87-6.89,12.84-22.37,19.58-36.32,16.37-14.77-3.4-25.75-15.63-25.91-30.72-.14-13.63,6.06-24.63,18.47-30.95,12.67-6.46,25.07-4.85,36.32,3.76,2.9,2.22,5.59,5.09,7.44,8.21,2.18,3.67,4.63,4.9,8.92,4.85,27.18-.31,54.36-.29,81.54-.38,1.1,0,2.19-.03,3.29-.02,4.52.06,4.61.1,3.06,4.14-2.19,5.7-4.69,11.28-6.73,17.03-1.08,3.04-2.87,3.79-5.89,3.76-13.15-.14-26.3-.06-39.46-.06v.19Z"/>
  <path class="cls-2" d="M766.33,439.53c-15.77,0-31.55.07-47.32-.06-3.04-.02-5.11.75-7.36,3.03-8.78,8.93-19.59,10.97-31.42,7.7-15.49-4.28-23.33-22.57-17.22-36.84,6.59-15.41,22.62-22.2,37.89-15.46,5.81,2.56,10.59,6.45,13.34,12.11,1.75,3.59,4.06,4.29,7.67,4.27,30.23-.12,60.47-.07,90.7-.07,1.53,0,3.14-.27,4.57.12.97.26,2.38,1.44,2.41,2.25.25,6.77.19,13.56.29,20.34.04,2.7-1.82,2.53-3.58,2.53-6.79,0-13.58,0-20.37,0-9.86,0-19.72,0-29.58,0v.08Z"/>
  <path class="cls-2" d="M483.64,316.67c21.44.14,39.33,17.64,39.08,38.69-.26,21.51-16.82,38.53-39,38.77-20.98.22-39.01-18.81-38.83-39.98.19-22.69,21.52-38.58,38.76-37.48Z"/>
  <path class="cls-2" d="M677.67,814.96c-.04-19.96,16.3-36.9,35.73-37.05,20.84-.16,38.15,16.5,38.27,36.8.12,20.37-16.6,37.22-36.98,37.32-23.67.12-38.16-20.96-37.02-37.07Z"/>
  <path class="cls-2" d="M764.87,293.76c0-17.13,14.4-31.97,30.98-31.91,17.79.07,33.31,14.59,33.44,31.29.14,17.88-14.77,33.16-32.21,33-17.45-.16-32.2-15-32.2-32.38Z"/>
  <path class="cls-2" d="M870.56,407.67c11.97,0,21.82,10.09,21.81,22.34,0,12.31-9.78,22.32-21.81,22.32-12.32,0-23.01-10.32-22.53-22.43.62-15.72,12.23-22.57,22.53-22.22Z"/>
  <path class="cls-2" d="M829.23,727.57c-11.54-.05-22.01-10.34-22.05-21.66-.04-11.99,10.67-23.51,22.21-23.16,12.04.37,21.21,8.5,21.59,22.5.34,12.45-9.66,22.37-21.74,22.32Z"/>
  <path class="cls-2" d="M597.46,869.52c.09-12.11,9.74-21.92,21.49-21.85,11.84.07,21.22,9.99,20.99,22.18-.22,11.63-10.06,21.27-21.55,21.11-11.92-.16-21.01-9.48-20.92-21.45Z"/>
  <path class="cls-2" d="M844.97,380.35c-11.29.1-21.41-9.91-21.52-21.27-.11-11.6,10.2-22.29,21.45-22.23,10.76.06,21.13,10.8,21.22,21.97.09,11.44-9.73,21.44-21.15,21.54Z"/>
  <path class="cls-2" d="M675.11,369.69c-3.67-.21-9,.94-10.59-.99-1.99-2.41-1.11-7.35-1.09-11.2.02-3.62-.71-8.29,1.2-10.51,1.55-1.8,6.54-.77,10-.75,3.89.03,9.13-1.09,11.28.94,2.05,1.93,1.03,7.27,1.1,11.11.06,3.46,1.1,8.47-.69,9.99-2.23,1.9-6.92.93-10.54,1.2-.22.02-.44,0-.66,0,0,.06,0,.13-.01.19Z"/>
  <path class="cls-2" d="M620.7,235.75c-3.65-.26-8.63.8-10.59-1.16-1.92-1.92-.79-6.9-.98-10.54-.03-.65,0-1.31,0-1.96q0-10.14,10.5-10.09c3.28.02,6.55.1,9.83.06,2.19-.03,3.2.98,3.2,3.13,0,5.89-.02,11.78.03,17.67.02,1.98-.91,2.7-2.79,2.66-3.06-.06-6.12-.01-9.17-.01,0,.08-.01.17-.02.25Z"/>
  <path class="cls-2" d="M622.5,157.12c0-3.06.07-6.11-.02-9.17-.07-2.3.98-3.01,3.17-2.97,5.25.1,10.49.1,15.74.01,2.65-.04,3.36,1.28,3.31,3.65-.13,5.67-.23,11.35-.17,17.02.03,2.64-1.2,3.44-3.59,3.35-2.18-.09-4.38.06-6.56-.05-3.85-.2-8.85.82-11.2-1.19-1.92-1.65-.69-6.96-.86-10.66.06,0,.12,0,.18,0Z"/>
  <path class="cls-2" d="M692.95,741.97c-.4,3.61.42,8.36-1.57,10.48-1.66,1.76-6.61.47-10.1.47q-10.86.02-10.87-11.14c0-3.06.02-6.12.02-9.18,0-2.15,1.01-3.14,3.23-3.09,5.25.12,10.51.21,15.77.16,2.24-.02,3.17.83,3.1,3.07-.09,3.06-.02,6.12-.02,9.18.15.01.3.03.46.04Z"/>
  <path class="cls-2" d="M781.44,226.98q-.25,10.78-11.28,11-11.77.24-11.75-11.37c.01-10.94.01-10.98,11.06-10.95,3.68,0,8.64-1.11,10.68.78,1.99,1.85.98,6.9,1.29,10.55Z"/>
  <path class="cls-2" d="M900.47,557.65c-.27,2.84.67,7.84-1.33,9.74-2.02,1.92-6.96.92-10.63.95-3.44.03-8.11,1.02-9.98-.77-1.83-1.75-.99-6.47-1-9.89-.01-3.67-.99-8.63.94-10.63,1.9-1.97,6.92-1.13,10.57-1.17,3.61-.04,8.29-.9,10.52.97,1.81,1.52.69,6.52.92,10.81Z"/>
  <path class="cls-2" d="M503.74,440.8c-3.7-.27-8.69.78-10.63-1.18-1.92-1.95-.95-6.93-.92-10.57.03-3.64-.77-8.31,1.14-10.57,1.49-1.77,6.55-.68,10.02-.6,3.62.09,8.3-.74,10.5,1.16,1.79,1.55.61,6.53.75,9.99,0,.22.01.44,0,.66-.19,3.43.88,8.1-.94,9.95-1.81,1.85-6.51.89-9.93,1.16Z"/>
  <path class="cls-1" d="M393.51,260.53c0,48.4.05,96.8-.08,145.2-.01,4.01.95,6.97,3.86,9.84,21.37,21.09,42.57,42.35,63.86,63.51,6.22,6.18,12.43,12.36,18.89,18.29,3.13,2.87,4.39,5.89,4.38,10.23-.17,48.18-.11,96.36-.11,144.54,0,5.04-.21,10.09.11,15.11.25,3.88-1.23,6.4-4.05,8.97-27.33,24.99-54.47,50.19-81.83,75.14-3.74,3.41-5.09,6.93-5.07,11.92.15,47.74.07,95.49.05,143.23,0,1.75.01,3.5-.02,5.26-.11,5.38-.14,5.44-5.08,3.88-59.81-18.97-114.02-48.21-161.33-89.44-42.31-36.87-75.26-80.97-98.67-132.06-14.82-32.35-24.33-66.31-31.11-101.14-7.84-40.25-9.77-80.83-6.28-121.57,2.64-30.76,9.19-60.82,18.51-90.34,18.33-58.02,49.89-107.98,90.93-152.48,48.5-52.59,107.23-89.4,174.1-113.89,4.92-1.8,9.87-3.52,14.81-5.29,3.15-1.13,4.53-.11,4.15,3.28-.14,1.3-.03,2.63-.03,3.94,0,47.96,0,95.92,0,143.89ZM363.02,584.6h.12c0-26.28.02-52.57-.01-78.85,0-5.94.42-5.04,4.96-5.06,5.48-.01,10.98.16,16.45-.06,3.12-.13,5.34.9,7.48,3.11,7.18,7.38,14.44,14.7,21.86,21.84,2.6,2.5,3.41,5.17,3.38,8.67-.14,17.96-.43,35.93.1,53.88.22,7.51-.85,13.17-8.82,15.53-.6.18-1.12.68-1.64,1.08-11.95,9.07-16.83,21.33-14.4,35.8,2.4,14.26,11.69,23.28,25.49,27.12,14.35,4,27.07.52,36.94-10.75,13.79-15.75,10.7-38.96-6.9-51.82-3.68-2.69-4.73-5.4-4.74-9.67,0-24.31-.23-48.62-.58-72.93-.03-2.41-.66-5.56-2.24-7.1-13.52-13.12-27.32-25.95-41.04-38.86-2.2-2.07-4.72-2.64-7.79-2.53-7.67.29-15.35.17-23.02.13-5.57-.03-5.6-.08-5.61-5.77-.02-8.98-.14-17.97.09-26.94.09-3.53-1.13-4.59-4.51-4.43-4.6.23-9.21.03-13.82.06-8.29.05-7.64-.77-7.65,7.93-.04,68.34-.1,136.68,0,205.02,0,4.66-1.06,8.12-4.5,11.52-29.6,29.3-59,58.79-88.47,88.22-7.91,7.9-15.75,15.87-23.78,23.64-2.29,2.22-2.33,3.59.07,5.73,4.75,4.21,9.31,8.64,13.81,13.12,2.04,2.02,3.2,1.71,5.2-.31,18.48-18.71,37.05-37.32,55.71-55.85,20.37-20.23,40.79-40.41,61.36-60.44,4.5-4.38,6.78-8.87,6.67-15.47-.41-25.18-.17-50.38-.17-75.57ZM316.5,412.02c0-.06,0-.11,0-.17,13.82,0,27.63-.09,41.45.06,3.45.04,4.97-.56,4.96-4.58-.18-57.36-.13-114.72-.35-172.08-.02-4.04,1.1-6.88,3.59-9.96,10.31-12.77,12.03-26.96,4.98-41.7-6.85-14.34-19.14-20.51-34.64-20.49-19.49.03-35.23,15.87-36.22,36.09-.85,17.5,14.32,35.62,32.01,37.51,4.38.47,4.77,2.14,4.72,5.71-.17,12.92-.05,25.84-.1,38.75-.02,5.59-.09,5.62-5.87,5.63-23.47.01-46.93-.19-70.39.13-5.65.08-9.1-1.2-11.87-6.5-6.09-11.64-16.49-16.45-29.4-15.91-18.78.78-34.45,21.32-29.29,38.83,3.76,12.75,12.66,21.06,25.6,23.88,12.64,2.76,23.51-1.38,31.26-11.88,2.3-3.12,4.68-3.92,8.18-3.91,25.44.04,50.88-.03,76.32-.08,6.13-.01,5.49-.29,5.49,5.83,0,20.8,0,41.6-.05,62.4-.02,8.15.82,7.02-6.93,7.06-17.98.09-35.97.07-53.95.15-5.02.02-5.08.11-5.17,5.03-.09,5.03-.04,10.07-.07,15.11-.03,5.12-.32,5.11,4.93,5.1,13.6-.03,27.19-.01,40.79-.01ZM209.2,474.43v.08c-12.28,0-24.56,0-36.83,0-16.88,0-33.76.03-50.65-.09-3.22-.02-4.77.62-4.58,4.32.32,6.11.18,12.26.07,18.38-.04,2.43.62,3.77,3.3,3.57,1.53-.11,3.07-.02,4.6-.02,48.23-.03,96.47-.06,144.7-.09,7.76,0,6.53-.4,6.53,6.75.03,29.99-.03,59.98-.02,89.97,0,5.47-1.37,11.58.63,16.22,1.99,4.63,7.39,7.81,11.35,11.57,3.49,3.32,7.01,6.61,10.6,9.82.71.63,1.8.83,2.72,1.23.22-.99.5-1.97.66-2.97.1-.64.04-1.31.04-1.97-.22-50.56-.45-101.12-.68-151.69,0-.88.25-1.89-.11-2.59-.49-.95-1.35-2.15-2.25-2.35-1.67-.38-3.48-.13-5.24-.13-28.28,0-56.57,0-84.85,0ZM249.02,570.2h.1c0-8.31-.03-16.63,0-24.94.02-5.19.11-4.88-5.12-4.86-15.56.04-31.13-.29-46.67.21-6.49.21-11.48-.8-14.47-7.03-.55-1.14-1.66-2.03-2.58-2.96-11.67-11.73-32.39-11.71-44.62.03-12.17,11.69-12.76,31.51-1.3,43.81,14.27,15.33,38.95,13.7,50.6-3.65,2.49-3.71,4.92-5.51,9.41-5.36,7.44.24,14.9-.07,22.35-.1,6.67-.03,6.46-.8,6.51,6.28.11,16.19.14,32.38.22,48.56,0,.83.27,1.65.41,2.47.74-.36,1.63-.56,2.2-1.09,6.87-6.42,13.83-12.77,20.44-19.44,1.47-1.48,2.33-4.17,2.4-6.33.27-8.52.11-17.06.11-25.59ZM251.72,401.48c.72-20.76-16.35-38.67-38.37-39.25-18.96-.5-38.6,14.24-38.97,37.83-.29,18.37,13.2,37.93,38.78,38.8,20.51.7,37.82-16.15,38.56-37.37ZM324.37,761.02c-16.57-.4-31.86,14.09-32.25,30.57-.42,17.57,14.2,32.84,31.85,33.25,17.36.41,32.1-13.97,32.57-31.77.45-17.15-14.07-31.62-32.17-32.05ZM171.15,672.04c17.8.03,31.52-13.07,31.53-30,0-20.83-16.01-31.81-30.5-31.99-17.59-.22-31.18,13.41-31.55,30.96-.34,16.33,13.65,31.74,30.53,31.03ZM231.48,660.93c.1,14.64,12.7,26.86,27.53,26.7,14.83-.16,26.69-12.01,26.7-26.67,0-15.11-12.45-27.61-27.48-27.56-14.53.04-26.85,12.71-26.75,27.52ZM201.29,692.8c-11.49-.09-21.58,9.77-21.6,21.1-.03,11.21,9.54,20.95,20.77,21.15,11.64.21,21.25-8.84,21.51-20.24.27-11.63-9.41-21.92-20.68-22.01ZM260.35,247.64c11.58.02,20.88-8.73,21.03-19.77.15-11.29-9.64-21.28-20.67-21.1-10.73.18-20.1,9.96-20.11,20.98,0,11.5,8.3,19.87,19.75,19.9ZM299.73,351.18c-.1-.01-.21-.03-.31-.04,0-2.84-.09-5.69.03-8.52.09-2.15-.52-3.25-2.89-3.2-5.69.11-11.39.12-17.08.09-2.32-.01-2.99,1.15-2.97,3.26.06,5.68.05,11.37-.03,17.05-.03,2.16.7,3.27,3.01,3.18,2.62-.1,5.26,0,7.88-.04,3.71-.07,8.96,1.24,10.73-.66,2.1-2.25,1.21-7.29,1.62-11.12ZM371.75,701.99c.09,0,.19.02.28.03,0,.22,0,.43,0,.65-.16,10.95-.16,11,10.72,10.91,3.65-.03,8.93,1.02,10.55-.89,2.02-2.38,1.22-7.31,1.27-11.14.05-3.62.87-8.23-.98-10.55-1.39-1.75-6.47-.75-9.9-.68-3.64.07-8.58-.83-10.54,1.12-2,1.98-1.05,6.92-1.39,10.56ZM140.02,440.77c.01-.12.02-.24.03-.35,2.85,0,5.69-.08,8.54.03,2.33.09,3.03-1,2.97-3.15-.1-3.28-.03-6.56-.03-9.83,0-10.58,0-10.64-10.58-10.54-3.86.04-9.21-.97-11.17,1.08-2.04,2.14-.94,7.39-.99,11.28-.04,3.47-1.11,8.43.68,10.02,2.21,1.96,6.92,1.11,10.55,1.47ZM350.3,743.29c0-.14.01-.28.02-.42,3.49,0,8.31,1.37,10.1-.37,1.97-1.91,1.36-6.68,1.47-10.21.12-3.65-.25-7.31-.4-10.97-3.85-.23-7.7-.71-11.55-.66-11.93.15-11.32-2.36-11.25,10.98.02,3.64-.93,8.63,1,10.54,1.97,1.95,6.95.87,10.61,1.12ZM362.36,858.47c-.29-2.97.63-7.95-1.43-10.27-1.69-1.89-6.95-.6-10.63-.72-.22,0-.44,0-.65,0-10.49.03-10.53.03-10.53,10.19,0,3.89.21,7.77.32,11.66,4,.33,7.99.84,12,.92,3.41.07,8.12.88,9.87-.93,1.82-1.88.79-6.52,1.06-10.85ZM295.09,455.69c2.6-.27,7.27.56,9.48-1.38,1.79-1.58.64-6.5.8-9.93,0-.22.01-.44,0-.65-.16-3.43.94-8.09-.86-9.94-1.76-1.82-6.48-.95-9.89-.95-3.65,0-8.6-.98-10.58.94-1.95,1.89-1.08,6.87-1.08,10.5,0,3.62-.78,8.28,1.11,10.53,1.52,1.8,6.53.67,11.02.88ZM169.14,356.8c0-.05,0-.11,0-.16h.65c10.63,0,10.68,0,10.61-10.52-.02-3.64.97-8.62-.96-10.55-1.93-1.94-6.92-.97-10.57-1.02-10.86-.15-10.93-.1-10.86,10.91.02,3.62-.76,8.28,1.13,10.51,1.53,1.8,6.53.67,9.98.84Z"/>
  <path class="cls-1" d="M636.3,772.86c.12,8.82-6.8,14.92-16.09,15.62-7.46.56-14.5-6.87-14.58-14.75-.08-7.93,7.3-15.91,15.07-16.29,7.77-.38,15.44,7.2,15.6,15.42Z"/>
  <path class="cls-1" d="M816.9,573.32c-8.08-.08-15.3-7.07-15.32-14.82-.02-7.76,8.01-15.52,15.8-15.26,8.01.26,15.26,7.43,15.26,15.06,0,8.26-7.17,15.11-15.74,15.02Z"/>
  <path class="cls-2" d="M363.02,584.6c0,25.19-.25,50.38.17,75.57.11,6.6-2.17,11.09-6.67,15.47-20.57,20.03-40.99,40.21-61.36,60.44-18.66,18.53-37.23,37.15-55.71,55.85-2,2.03-3.16,2.34-5.2.31-4.5-4.48-9.06-8.91-13.81-13.12-2.41-2.13-2.37-3.51-.07-5.73,8.03-7.77,15.88-15.74,23.78-23.64,29.47-29.43,58.87-58.93,88.47-88.22,3.44-3.41,4.51-6.86,4.5-11.52-.1-68.34-.03-136.68,0-205.02,0-8.7-.64-7.88,7.65-7.93,4.61-.03,9.22.16,13.82-.06,3.38-.17,4.61.9,4.51,4.43-.24,8.97-.12,17.96-.09,26.94.01,5.68.05,5.74,5.61,5.77,7.67.04,15.36.15,23.02-.13,3.07-.11,5.59.46,7.79,2.53,13.72,12.91,27.52,25.74,41.04,38.86,1.58,1.54,2.21,4.68,2.24,7.1.35,24.31.57,48.62.58,72.93,0,4.27,1.06,6.99,4.74,9.67,17.6,12.86,20.69,36.07,6.9,51.82-9.87,11.27-22.58,14.75-36.94,10.75-13.8-3.85-23.09-12.86-25.49-27.12-2.44-14.47,2.45-26.73,14.4-35.8.52-.4,1.04-.9,1.64-1.08,7.98-2.37,9.04-8.03,8.82-15.53-.53-17.95-.25-35.92-.1-53.88.03-3.5-.78-6.18-3.38-8.67-7.42-7.14-14.68-14.45-21.86-21.84-2.14-2.2-4.36-3.24-7.48-3.11-5.48.22-10.97.05-16.45.06-4.54.01-4.97-.89-4.96,5.06.03,26.28.01,52.57.01,78.85h-.12ZM442.5,633.82c.1-8.41-6.32-15.45-14.37-15.77-8.04-.31-15.97,7.02-16.19,14.99-.22,8.06,6.73,15.48,14.61,15.58,8.82.12,15.85-6.41,15.96-14.8Z"/>
  <path class="cls-2" d="M316.5,412.02c-13.6,0-27.19-.02-40.79.01-5.25.01-4.96.02-4.93-5.1.03-5.04-.03-10.07.07-15.11.09-4.92.16-5.01,5.17-5.03,17.98-.08,35.97-.06,53.95-.15,7.75-.04,6.91,1.09,6.93-7.06.05-20.8.04-41.6.05-62.4,0-6.12.65-5.84-5.49-5.83-25.44.05-50.88.13-76.32.08-3.5,0-5.88.79-8.18,3.91-7.76,10.5-18.62,14.63-31.26,11.88-12.94-2.82-21.84-11.13-25.6-23.88-5.16-17.52,10.5-38.05,29.29-38.83,12.91-.54,23.3,4.27,29.4,15.91,2.77,5.3,6.22,6.58,11.87,6.5,23.46-.32,46.93-.12,70.39-.13,5.77,0,5.84-.04,5.87-5.63.05-12.92-.07-25.84.1-38.75.05-3.56-.35-5.24-4.72-5.71-17.69-1.89-32.86-20.01-32.01-37.51.98-20.22,16.73-36.06,36.22-36.09,15.51-.02,27.79,6.15,34.64,20.49,7.04,14.74,5.32,28.92-4.98,41.7-2.49,3.08-3.6,5.91-3.59,9.96.22,57.36.17,114.72.35,172.08.01,4.02-1.51,4.62-4.96,4.58-13.81-.15-27.63-.06-41.45-.06,0,.06,0,.11,0,.17Z"/>
  <path class="cls-2" d="M209.2,474.43c28.28,0,56.57,0,84.85,0,1.75,0,3.57-.25,5.24.13.9.21,1.76,1.4,2.25,2.35.36.7.11,1.72.11,2.59.23,50.56.45,101.13.68,151.69,0,.66.06,1.33-.04,1.97-.16,1-.43,1.98-.66,2.97-.92-.4-2.01-.6-2.72-1.23-3.59-3.21-7.11-6.5-10.6-9.82-3.96-3.76-9.36-6.94-11.35-11.57-2-4.64-.63-10.75-.63-16.22,0-29.99.05-59.98.02-89.97,0-7.14,1.23-6.75-6.53-6.75-48.23.03-96.47.06-144.7.09-1.53,0-3.08-.09-4.6.02-2.68.2-3.34-1.13-3.3-3.57.11-6.13.25-12.27-.07-18.38-.19-3.7,1.36-4.34,4.58-4.32,16.88.12,33.76.08,50.65.09,12.28,0,24.56,0,36.83,0v-.08Z"/>
  <path class="cls-2" d="M249.02,570.2c0,8.53.16,17.07-.11,25.59-.07,2.17-.93,4.85-2.4,6.33-6.61,6.68-13.57,13.02-20.44,19.44-.57.54-1.46.74-2.2,1.09-.14-.82-.4-1.65-.41-2.47-.09-16.19-.11-32.38-.22-48.56-.05-7.09.16-6.32-6.51-6.28-7.45.04-14.91.34-22.35.1-4.49-.14-6.92,1.65-9.41,5.36-11.65,17.35-36.32,18.98-50.6,3.65-11.46-12.31-10.87-32.13,1.3-43.81,12.23-11.74,32.95-11.77,44.62-.03.92.93,2.04,1.82,2.58,2.96,2.99,6.24,7.98,7.24,14.47,7.03,15.54-.5,31.11-.18,46.67-.21,5.23-.01,5.14-.33,5.12,4.86-.04,8.31,0,16.63,0,24.94h-.1Z"/>
  <path class="cls-2" d="M251.72,401.48c-.74,21.22-18.05,38.07-38.56,37.37-25.58-.87-39.07-20.43-38.78-38.8.37-23.59,20.02-38.33,38.97-37.83,22.01.59,39.09,18.49,38.37,39.25Z"/>
  <path class="cls-2" d="M324.37,761.02c18.1.43,32.62,14.9,32.17,32.05-.47,17.8-15.21,32.18-32.57,31.77-17.64-.41-32.27-15.68-31.85-33.25.39-16.47,15.68-30.96,32.25-30.57Z"/>
  <path class="cls-2" d="M171.15,672.04c-16.88.71-30.87-14.69-30.53-31.03.37-17.55,13.96-31.19,31.55-30.96,14.49.18,30.5,11.16,30.5,31.99,0,16.93-13.72,30.03-31.53,30Z"/>
  <path class="cls-2" d="M231.48,660.93c-.1-14.81,12.22-27.48,26.75-27.52,15.03-.05,27.49,12.45,27.48,27.56,0,14.66-11.88,26.51-26.7,26.67-14.83.16-27.43-12.07-27.53-26.7Z"/>
  <path class="cls-2" d="M201.29,692.8c11.27.09,20.94,10.38,20.68,22.01-.26,11.4-9.87,20.44-21.51,20.24-11.23-.2-20.79-9.94-20.77-21.15.03-11.33,10.12-21.18,21.6-21.1Z"/>
  <path class="cls-2" d="M260.35,247.64c-11.45-.02-19.76-8.4-19.75-19.9,0-11.02,9.38-20.8,20.11-20.98,11.03-.18,20.82,9.81,20.67,21.1-.15,11.05-9.46,19.8-21.03,19.77Z"/>
  <path class="cls-2" d="M299.73,351.18c-.41,3.83.48,8.87-1.62,11.12-1.78,1.9-7.02.59-10.73.66-2.63.05-5.26-.05-7.88.04-2.32.09-3.04-1.02-3.01-3.18.08-5.68.08-11.37.03-17.05-.02-2.11.65-3.28,2.97-3.26,5.69.03,11.39.03,17.08-.09,2.37-.05,2.99,1.06,2.89,3.2-.12,2.84-.03,5.68-.03,8.52.1.01.21.03.31.04Z"/>
  <path class="cls-2" d="M371.75,701.99c.34-3.64-.6-8.57,1.39-10.56,1.96-1.95,6.9-1.05,10.54-1.12,3.43-.07,8.51-1.07,9.9.68,1.85,2.33,1.03,6.93.98,10.55-.05,3.83.75,8.76-1.27,11.14-1.62,1.91-6.89.86-10.55.89-10.88.09-10.88.04-10.72-10.91,0-.22,0-.43,0-.65-.09,0-.19-.02-.28-.03Z"/>
  <path class="cls-2" d="M140.02,440.77c-3.63-.36-8.34.49-10.55-1.47-1.79-1.59-.72-6.56-.68-10.02.05-3.89-1.05-9.14.99-11.28,1.96-2.05,7.31-1.05,11.17-1.08,10.58-.1,10.58-.04,10.58,10.54,0,3.28-.07,6.56.03,9.83.06,2.15-.64,3.24-2.97,3.15-2.84-.11-5.69-.03-8.54-.03-.01.12-.02.24-.03.35Z"/>
  <path class="cls-2" d="M350.3,743.29c-3.66-.25-8.63.83-10.61-1.12-1.93-1.91-.98-6.9-1-10.54-.07-13.34-.68-10.83,11.25-10.98,3.85-.05,7.7.43,11.55.66.15,3.66.52,7.32.4,10.97-.11,3.54.5,8.31-1.47,10.21-1.8,1.74-6.62.37-10.1.37,0,.14-.01.28-.02.42Z"/>
  <path class="cls-2" d="M362.36,858.47c-.27,4.33.76,8.97-1.06,10.85-1.76,1.81-6.47.99-9.87.93-4-.08-8-.59-12-.92-.11-3.89-.32-7.77-.32-11.66,0-10.17.04-10.17,10.53-10.19.22,0,.44-.01.65,0,3.68.12,8.94-1.17,10.63.72,2.07,2.32,1.15,7.3,1.43,10.27Z"/>
  <path class="cls-2" d="M295.09,455.69c-4.49-.22-9.5.92-11.02-.88-1.89-2.25-1.11-6.91-1.11-10.53,0-3.63-.87-8.61,1.08-10.5,1.98-1.92,6.93-.94,10.58-.94,3.42,0,8.13-.87,9.89.95,1.8,1.85.7,6.51.86,9.94.01.22,0,.44,0,.65-.15,3.44,1,8.35-.8,9.93-2.21,1.95-6.88,1.12-9.48,1.38Z"/>
  <path class="cls-2" d="M169.14,356.8c-3.46-.17-8.46.97-9.98-.84-1.89-2.23-1.11-6.9-1.13-10.51-.07-11.01,0-11.06,10.86-10.91,3.65.05,8.64-.91,10.57,1.02,1.93,1.93.93,6.91.96,10.55.07,10.52.02,10.52-10.61,10.52h-.65c0,.05,0,.11,0,.16Z"/>
  <path class="cls-1" d="M442.5,633.82c-.1,8.39-7.14,14.92-15.96,14.8-7.88-.1-14.83-7.52-14.61-15.58.22-7.96,8.15-15.3,16.19-14.99,8.06.31,14.48,7.36,14.37,15.77Z"/>
</svg>