<?xml version="1.0" standalone="no"?>
<!DOCTYPE svg PUBLIC "-//W3C//DTD SVG 20010904//EN"
 "http://www.w3.org/TR/2001/REC-SVG-20010904/DTD/svg10.dtd">
<svg version="1.0" xmlns="http://www.w3.org/2000/svg"
 width="516.000000pt" height="516.000000pt" viewBox="0 0 516.000000 516.000000"
 preserveAspectRatio="xMidYMid meet">
<metadata>
Created by potrace 1.14, written by Peter Selinger 2001-2017
</metadata>
<g transform="translate(0.000000,516.000000) scale(0.100000,-0.100000)"
fill="#000000" stroke="none">
<path d="M2488 5135 c-5 -6 -97 -18 -313 -41 -27 -3 -54 -10 -60 -15 -5 -5
-26 -9 -46 -9 -21 0 -40 -4 -43 -9 -3 -4 -27 -11 -53 -15 -45 -6 -95 -19 -138
-37 -11 -5 -45 -16 -75 -25 -82 -24 -79 -22 -300 -133 -113 -56 -241 -128
-286 -159 -80 -56 -103 -74 -188 -142 -24 -19 -68 -54 -97 -77 -30 -23 -76
-68 -104 -99 -27 -32 -73 -82 -101 -113 -55 -60 -244 -329 -244 -347 0 -4 -15
-27 -33 -53 -31 -44 -68 -115 -100 -191 -94 -222 -145 -361 -167 -460 -7 -30
-21 -91 -31 -135 -29 -125 -39 -193 -39 -264 0 -36 -7 -97 -15 -136 -19 -88
-19 -122 0 -210 8 -39 15 -98 15 -132 0 -144 108 -622 151 -668 5 -5 9 -15 9
-22 0 -8 31 -76 69 -151 95 -190 104 -206 111 -212 3 -3 14 -21 23 -40 24 -48
38 -70 67 -105 14 -17 34 -44 45 -59 67 -95 387 -436 409 -436 5 0 25 -15 46
-33 70 -61 307 -215 432 -281 162 -85 420 -178 618 -222 348 -77 774 -75 1095
5 77 19 130 34 150 41 11 4 54 19 95 33 120 41 180 65 206 82 13 8 29 15 36
15 13 0 96 42 183 93 26 15 54 27 61 27 8 0 14 5 14 10 0 6 4 10 10 10 11 0
211 132 265 176 62 49 375 358 375 370 0 6 9 19 20 29 19 17 146 199 198 283
12 20 39 71 60 112 20 41 40 77 43 80 3 3 18 37 34 75 16 39 32 75 36 80 4 6
19 46 34 90 14 44 29 87 32 95 4 8 8 22 9 30 2 8 7 31 13 50 5 19 15 53 21 75
57 202 89 547 70 755 -16 180 -26 247 -57 385 -27 125 -109 393 -124 410 -5 5
-9 15 -9 22 0 13 -43 113 -77 178 -85 164 -105 201 -117 214 -7 9 -16 24 -19
34 -4 9 -11 17 -17 17 -5 0 -10 6 -10 13 0 8 -9 22 -20 32 -11 10 -32 39 -46
64 -15 25 -47 69 -72 96 -24 28 -69 79 -101 114 -126 142 -267 269 -382 343
-30 20 -61 44 -68 52 -8 9 -18 16 -23 16 -6 0 -24 10 -41 23 -35 24 -64 43
-87 53 -8 4 -27 16 -42 26 -14 10 -32 18 -40 18 -8 0 -39 15 -69 33 -30 18
-76 41 -104 50 -65 24 -82 31 -130 52 -105 46 -345 108 -500 130 -22 3 -87 13
-145 21 -120 17 -312 29 -322 19z m120 -122 c-26 -2 -71 -2 -100 0 -29 2 -8 3
47 3 55 0 79 -1 53 -3z m-240 -10 c-10 -2 -26 -2 -35 0 -10 3 -2 5 17 5 19 0
27 -2 18 -5z m377 -2 c-30 -5 -7 -9 100 -19 213 -21 447 -85 670 -184 122 -55
120 -54 110 -38 -5 9 -4 11 4 6 6 -4 8 -12 5 -18 -5 -8 -1 -9 10 -5 9 4 15 3
12 -1 -7 -12 63 -44 76 -36 7 5 8 2 3 -6 -6 -10 -4 -12 8 -7 10 4 16 2 14 -5
-1 -6 4 -13 12 -16 9 -3 11 0 6 8 -5 9 -4 11 4 6 6 -4 9 -11 7 -15 -7 -10 52
-44 63 -36 5 3 13 0 17 -6 5 -8 3 -9 -6 -4 -9 6 -11 4 -6 -4 5 -7 15 -10 23
-7 8 3 12 2 9 -3 -7 -11 41 -44 54 -36 5 3 12 0 16 -6 5 -8 3 -9 -6 -4 -9 6
-11 4 -6 -4 5 -7 14 -10 22 -7 7 3 16 0 20 -6 5 -7 2 -8 -7 -3 -12 8 -12 6 0
-9 8 -9 20 -15 27 -12 8 3 13 0 11 -7 -1 -7 6 -12 15 -12 10 0 25 -9 35 -20
17 -19 17 -19 -3 -5 -11 8 -7 3 10 -12 16 -15 34 -24 39 -21 6 3 7 1 3 -5 -3
-5 12 -25 34 -42 22 -17 40 -29 40 -25 0 4 7 2 15 -5 8 -7 13 -16 10 -20 -2
-4 4 -15 15 -25 11 -10 20 -15 20 -10 0 4 7 2 15 -5 9 -7 13 -15 10 -18 -7 -7
36 -53 45 -47 4 2 18 -7 31 -22 13 -14 18 -23 12 -19 -25 14 -13 -11 19 -40
27 -24 29 -25 13 -4 l-20 25 22 -19 c13 -10 20 -23 17 -27 -3 -5 19 -39 49
-76 30 -38 67 -86 82 -108 14 -22 32 -40 38 -40 7 -1 11 -7 9 -13 -3 -18 48
-103 59 -96 5 3 6 -1 3 -9 -3 -8 0 -18 7 -23 8 -5 10 -3 4 6 -5 8 -4 11 3 6 6
-4 9 -12 6 -20 -6 -16 40 -99 50 -89 4 4 4 -1 0 -11 -4 -12 -4 -17 2 -13 5 3
10 -2 11 -11 2 -32 97 -251 107 -245 5 3 6 1 2 -6 -4 -6 2 -39 13 -74 130
-395 148 -887 46 -1300 -34 -141 -84 -296 -112 -350 -8 -16 -12 -35 -9 -43 3
-8 2 -13 -3 -10 -12 8 -35 -50 -25 -65 4 -7 3 -10 -3 -6 -13 8 -26 -20 -16
-35 4 -7 1 -8 -7 -3 -10 6 -12 4 -7 -9 4 -10 3 -15 -3 -11 -11 7 -63 -92 -55
-105 3 -5 0 -12 -6 -16 -8 -5 -10 -2 -5 7 4 8 1 5 -6 -5 -82 -122 -98 -148
-93 -157 4 -5 1 -8 -7 -7 -7 2 -13 -6 -13 -17 -1 -11 -6 -19 -12 -18 -6 1 -23
-13 -37 -32 -29 -37 -34 -54 -11 -35 26 22 16 4 -12 -21 -21 -18 -24 -19 -13
-4 13 19 12 19 -9 -1 -12 -11 -23 -27 -24 -35 -4 -22 -18 -40 -27 -34 -12 7
-51 -45 -43 -58 3 -5 2 -7 -4 -4 -5 3 -41 -26 -79 -66 l-69 -72 68 65 c37 35
67 62 67 59 0 -2 -32 -36 -71 -74 -40 -39 -69 -64 -65 -57 4 6 5 12 2 12 -13
0 -151 -122 -151 -133 -1 -7 -6 -11 -13 -10 -16 4 -87 -46 -87 -60 0 -7 -7
-12 -15 -12 -17 0 -80 -32 -80 -41 0 -3 6 -2 13 2 7 4 8 3 4 -2 -5 -5 -16 -9
-25 -9 -9 0 -16 -5 -15 -12 2 -8 -4 -10 -14 -6 -12 5 -14 3 -8 -7 5 -9 4 -11
-3 -6 -14 8 -73 -24 -66 -35 2 -4 -1 -11 -7 -15 -8 -4 -9 -3 -5 4 11 18 2 15
-92 -31 -48 -24 -113 -54 -144 -66 -34 -14 -55 -28 -51 -34 3 -6 1 -7 -5 -3
-16 10 -123 -25 -115 -37 3 -6 1 -7 -5 -3 -18 11 -96 -15 -80 -27 9 -6 7 -7
-6 -3 -20 7 -177 -24 -172 -33 2 -3 -12 -6 -32 -7 -21 0 -88 -8 -151 -18 -92
-15 -155 -17 -340 -14 -207 4 -239 8 -376 37 -178 38 -314 78 -448 132 -54 22
-102 37 -107 34 -5 -3 -22 1 -37 10 -27 16 -24 16 22 0 11 -3 -2 6 -28 20 -27
15 -56 24 -64 21 -7 -3 -11 -2 -8 4 7 11 -117 82 -136 78 -7 -2 -13 3 -14 10
0 18 -62 52 -82 46 -14 -5 -15 -4 -4 4 16 12 -3 27 -21 16 -7 -4 -8 -3 -4 4 7
12 -29 37 -54 37 -8 0 -15 6 -15 14 0 8 -6 16 -14 19 -9 3 -11 0 -6 -8 5 -9 4
-11 -4 -6 -6 4 -9 11 -7 15 6 9 -173 157 -186 153 -5 -1 -7 1 -4 6 3 5 -39 51
-92 103 -53 52 -85 81 -72 64 l25 -30 -33 29 c-31 29 -42 43 -22 31 6 -3 10
-2 10 3 0 12 -45 53 -52 47 -3 -3 -11 3 -19 12 -13 16 -12 17 4 4 25 -19 21
-5 -9 35 -14 18 -30 32 -34 29 -11 -7 -41 35 -34 46 7 11 -26 60 -36 54 -5 -3
-12 0 -16 6 -4 8 -3 9 4 5 7 -4 12 -3 12 2 0 17 -13 22 -29 9 -14 -10 -14 -10
-3 4 10 14 9 23 -9 53 -11 20 -23 36 -26 36 -2 0 -1 -5 3 -12 4 -7 3 -8 -5 -4
-6 4 -9 11 -6 16 5 8 -42 110 -51 110 -3 0 -2 -5 2 -12 4 -7 3 -8 -4 -4 -6 4
-8 14 -5 23 5 12 3 14 -7 8 -8 -5 -11 -4 -7 2 9 14 -53 154 -64 147 -5 -3 -6
3 -2 12 4 12 3 15 -5 10 -7 -4 -10 -2 -6 7 2 7 -11 56 -29 108 -19 52 -40 121
-47 152 -9 39 -16 53 -22 45 -5 -8 -6 -4 -3 12 3 14 -1 54 -10 90 -23 96 -45
335 -45 495 0 190 21 370 64 552 20 84 33 160 30 170 -4 13 -3 14 3 5 12 -16
68 141 57 159 -5 8 -3 9 6 4 10 -6 12 -4 7 9 -4 10 -3 15 3 11 6 -3 10 -5 10
-3 0 2 14 36 30 76 16 41 27 78 24 83 -3 5 0 8 7 7 6 -2 14 3 17 11 3 9 0 11
-8 6 -9 -5 -11 -4 -6 4 4 6 11 9 15 7 10 -6 53 83 46 94 -3 5 0 12 6 16 8 4 9
3 5 -4 -4 -7 -5 -12 -2 -12 10 0 37 61 31 71 -4 5 -1 8 6 7 6 -2 14 3 17 11 3
10 0 11 -9 5 -12 -7 -12 -5 0 9 15 19 26 23 15 5 -5 -7 -3 -8 5 -4 7 5 10 15
7 23 -3 8 -2 11 4 8 8 -5 34 34 43 62 1 5 5 7 9 6 4 -2 13 7 19 20 7 12 23 35
36 50 13 16 20 34 17 39 -4 6 -2 8 3 5 11 -7 47 38 48 58 0 6 6 10 12 10 7 0
20 10 28 23 9 12 13 22 9 22 -3 0 -1 7 6 15 7 8 15 13 19 10 4 -2 34 23 66 55
33 33 56 60 51 60 -5 0 -3 7 4 15 7 8 16 13 20 10 4 -2 20 10 36 28 16 18 19
24 7 13 -32 -27 -29 -15 4 15 14 13 23 18 19 12 -4 -7 -3 -13 3 -13 11 0 26
20 26 34 0 5 8 10 18 12 24 3 48 24 41 35 -3 5 1 6 9 3 15 -5 32 11 32 31 0 5
9 10 20 10 11 0 20 5 20 12 0 6 4 15 9 20 5 5 6 3 2 -4 -10 -17 0 -16 29 3 14
9 23 20 20 24 -3 4 3 14 12 21 12 10 14 10 9 2 -10 -18 -3 -16 38 8 20 12 33
25 30 30 -3 5 1 6 9 3 8 -3 18 0 23 7 5 8 3 10 -6 4 -9 -5 -11 -4 -6 4 4 6 11
9 16 6 13 -8 112 44 105 55 -4 6 1 7 11 3 13 -5 15 -3 9 7 -5 9 -4 11 3 6 14
-9 114 33 106 45 -3 5 3 6 12 2 13 -5 15 -3 9 7 -5 8 -4 11 2 7 6 -4 58 11
116 33 232 87 507 136 792 139 82 1 151 4 154 6 2 3 20 4 40 4 l36 -2 -40 -6z
m-2332 -1376 c-3 -9 -8 -14 -10 -11 -3 3 -2 9 2 15 9 16 15 13 8 -4z m4466
-310 c0 -5 -4 -3 -9 5 -5 8 -9 22 -9 30 0 16 17 -16 18 -35z m38 -157 c-3 -8
-6 -5 -6 6 -1 11 2 17 5 13 3 -3 4 -12 1 -19z m-4670 -10 c-3 -8 -6 -5 -6 6
-1 11 2 17 5 13 3 -3 4 -12 1 -19z m4680 -30 c-3 -8 -6 -5 -6 6 -1 11 2 17 5
13 3 -3 4 -12 1 -19z m10 -40 c-3 -8 -6 -5 -6 6 -1 11 2 17 5 13 3 -3 4 -12 1
-19z m-4750 -290 c-3 -7 -5 -2 -5 12 0 14 2 19 5 13 2 -7 2 -19 0 -25z m4800
-135 c-2 -16 -4 -3 -4 27 0 30 2 43 4 28 2 -16 2 -40 0 -55z m-4810 0 c-2 -16
-4 -5 -4 22 0 28 2 40 4 28 2 -13 2 -35 0 -50z m0 -185 c-2 -18 -4 -6 -4 27 0
33 2 48 4 33 2 -15 2 -42 0 -60z m4810 30 c-3 -8 -6 -5 -6 6 -1 11 2 17 5 13
3 -3 4 -12 1 -19z m0 -60 c-3 -7 -5 -2 -5 12 0 14 2 19 5 13 2 -7 2 -19 0 -25z
m-4800 -95 c-3 -10 -5 -4 -5 12 0 17 2 24 5 18 2 -7 2 -21 0 -30z m193 -738
c0 -5 -5 -3 -10 5 -5 8 -10 20 -10 25 0 6 5 3 10 -5 5 -8 10 -19 10 -25z
m4221 -338 l-24 -22 19 27 c10 14 21 24 23 22 3 -3 -6 -15 -18 -27z m-3691
-402 c7 -9 8 -15 2 -15 -5 0 -12 7 -16 15 -3 8 -4 15 -2 15 2 0 9 -7 16 -15z
m85 -75 c3 -5 1 -10 -4 -10 -6 0 -11 5 -11 10 0 6 2 10 4 10 3 0 8 -4 11 -10z
m475 -337 c0 -7 -39 17 -46 28 -3 6 5 3 20 -6 14 -10 26 -19 26 -22z m2170
-28 c0 -2 -13 -11 -30 -20 -38 -19 -40 -11 -2 9 31 17 32 18 32 11z m-1930
-75 c8 -5 11 -10 5 -10 -5 0 -17 5 -25 10 -8 5 -10 10 -5 10 6 0 17 -5 25 -10z
m1317 -136 c-3 -3 -12 -4 -19 -1 -8 3 -5 6 6 6 11 1 17 -2 13 -5z m-810 -10
c-3 -3 -12 -4 -19 -1 -8 3 -5 6 6 6 11 1 17 -2 13 -5z m766 -1 c-7 -2 -19 -2
-25 0 -7 3 -2 5 12 5 14 0 19 -2 13 -5z"/>
<path d="M2375 4874 c-93 -8 -358 -57 -399 -75 -16 -7 -13 -8 14 -4 31 4 32 4
11 -5 -13 -6 -32 -8 -43 -4 -28 8 -212 -52 -202 -67 3 -5 -2 -6 -10 -3 -15 6
-266 -108 -266 -121 0 -3 10 -1 23 5 21 11 21 10 3 -4 -10 -9 -23 -13 -28 -10
-8 5 -98 -42 -98 -52 0 -3 5 -2 12 2 7 4 8 3 4 -5 -4 -6 -12 -9 -17 -5 -9 5
-89 -42 -89 -53 0 -2 5 -1 12 3 7 4 8 3 4 -5 -4 -6 -11 -9 -16 -6 -12 7 -61
-25 -55 -35 3 -4 -3 -14 -12 -21 -12 -10 -14 -10 -9 -1 15 25 -10 10 -59 -35
-27 -25 -41 -40 -30 -32 18 13 19 13 6 -3 -7 -10 -17 -16 -21 -13 -11 7 -151
-125 -144 -136 3 -5 0 -8 -8 -7 -7 2 -12 -3 -10 -10 1 -8 -2 -11 -7 -8 -11 7
-87 -80 -84 -95 2 -5 -3 -8 -10 -6 -6 1 -12 -7 -12 -18 0 -11 -5 -20 -10 -20
-19 0 -36 -17 -33 -33 2 -9 -4 -17 -12 -17 -8 0 -14 -8 -14 -18 1 -9 -2 -15
-6 -12 -4 2 -17 -9 -28 -25 -24 -31 -28 -45 -12 -35 16 10 11 -1 -7 -16 -11
-10 -14 -10 -9 -1 4 6 5 12 2 12 -10 0 -47 -70 -41 -80 4 -6 1 -9 -7 -8 -7 2
-12 -5 -12 -14 1 -10 -1 -16 -5 -13 -8 4 -80 -117 -105 -179 -9 -21 -13 -43
-9 -49 4 -6 1 -7 -7 -2 -10 6 -12 4 -7 -9 5 -11 3 -15 -5 -10 -8 5 -9 2 -5
-10 4 -9 3 -15 -2 -12 -12 8 -64 -140 -55 -155 4 -8 3 -9 -4 -5 -7 4 -12 5
-12 3 0 -3 -16 -62 -35 -133 -32 -117 -47 -194 -76 -387 -18 -119 -12 -384 11
-552 28 -197 49 -292 62 -274 7 10 8 8 3 -8 -3 -12 2 -48 11 -80 29 -99 96
-263 105 -257 5 3 6 -3 2 -12 -5 -13 -3 -15 7 -9 8 5 11 4 7 -3 -7 -10 27
-102 38 -102 4 0 3 5 -1 12 -4 7 -3 8 4 4 6 -4 8 -14 5 -23 -5 -12 -3 -14 7
-8 9 5 11 4 6 -3 -9 -15 32 -95 44 -87 5 3 7 0 4 -8 -3 -8 0 -18 7 -23 8 -4
10 -3 5 4 -11 18 0 14 15 -5 10 -11 10 -14 2 -9 -7 4 -13 4 -13 -1 1 -13 27
-43 32 -37 4 3 5 -3 4 -13 0 -10 4 -17 10 -16 7 1 11 -5 10 -15 0 -9 4 -16 11
-15 7 2 10 -3 8 -10 -3 -6 11 -30 31 -52 20 -22 30 -31 23 -20 -13 18 -13 19
3 6 10 -7 15 -17 12 -23 -7 -11 15 -40 26 -33 10 6 24 -14 25 -32 0 -19 156
-173 169 -166 6 3 8 2 3 -2 -8 -10 32 -57 43 -50 4 3 14 -3 21 -13 13 -16 12
-16 -6 -3 -11 7 -5 -1 14 -17 19 -17 39 -28 44 -25 6 3 7 1 3 -5 -8 -13 33
-44 47 -35 6 3 7 1 4 -4 -8 -13 19 -37 32 -29 5 4 13 1 17 -5 5 -8 3 -9 -6 -4
-9 6 -11 4 -6 -4 5 -7 15 -10 23 -7 8 3 12 2 9 -3 -3 -5 5 -16 19 -25 29 -19
39 -20 29 -3 -5 8 -2 8 9 -2 18 -15 23 -26 7 -16 -5 3 -10 4 -10 1 0 -11 102
-66 112 -60 7 5 8 2 3 -6 -6 -10 -4 -12 8 -7 9 3 19 1 23 -5 4 -7 3 -8 -4 -4
-7 4 -12 5 -12 2 0 -12 101 -56 112 -50 7 5 8 2 3 -6 -6 -10 -4 -12 9 -7 9 4
15 3 12 -1 -8 -13 110 -66 124 -57 9 6 11 4 5 -5 -6 -10 -4 -12 9 -7 9 4 15 3
11 -2 -7 -13 88 -43 111 -35 13 4 15 3 6 -3 -26 -19 258 -94 448 -119 97 -12
176 -15 350 -11 233 5 298 13 486 61 179 45 453 153 437 171 -4 4 -3 5 4 2 15
-9 45 2 37 14 -3 5 3 6 12 2 13 -5 15 -3 9 7 -5 8 -4 11 3 6 16 -10 114 42
106 56 -4 7 -3 8 5 4 10 -7 81 29 81 40 0 3 -5 2 -12 -2 -7 -4 -8 -3 -4 4 4 6
13 9 20 6 8 -3 17 0 22 7 5 8 3 10 -6 4 -9 -5 -11 -4 -6 4 4 6 12 9 17 5 14
-8 61 25 53 38 -4 7 -3 8 4 4 15 -9 84 43 75 57 -4 6 -1 7 6 3 15 -10 53 23
44 37 -3 5 -1 7 5 3 14 -8 74 43 65 56 -3 7 -1 8 5 4 15 -9 157 128 148 142
-3 5 4 18 17 28 l22 19 -20 -25 c-12 -15 -5 -12 18 9 36 34 51 60 25 45 -9 -5
-9 -3 1 9 7 9 17 15 21 12 11 -7 33 22 26 33 -3 6 2 16 12 23 16 13 16 12 2
-6 -15 -20 -15 -20 8 -1 12 11 20 26 18 33 -3 7 0 12 7 10 7 -1 12 6 12 15 0
9 4 20 9 25 5 5 6 2 1 -7 -8 -13 -7 -13 8 -1 19 15 23 36 5 25 -7 -4 -8 -3 -4
5 4 6 11 9 16 6 10 -6 52 63 45 74 -2 5 2 17 11 27 14 18 15 18 4 -3 -21 -44
-1 -22 30 32 17 30 28 60 24 66 -5 8 -3 9 6 4 10 -6 12 -4 7 9 -4 10 -3 15 3
11 20 -12 162 334 164 402 0 22 4 37 7 31 9 -15 21 40 14 65 -4 15 -3 18 3 9
23 -33 62 253 69 498 5 177 2 226 -16 360 -12 85 -38 214 -57 285 -39 145
-103 327 -114 320 -3 -2 -6 6 -6 18 1 13 -4 21 -12 19 -8 -1 -11 2 -7 9 9 13
-34 110 -45 104 -4 -3 -7 3 -6 13 0 9 -5 16 -12 14 -8 -1 -11 2 -7 7 8 13 -33
93 -44 86 -5 -2 -8 3 -7 12 0 10 -4 18 -11 18 -6 0 -15 4 -20 9 -5 5 -3 6 5 2
18 -10 15 4 -8 42 -11 18 -24 30 -29 27 -5 -3 -13 0 -17 6 -4 8 -3 9 4 5 18
-11 14 10 -5 25 -15 12 -16 12 -8 -1 5 -9 4 -12 -1 -7 -5 5 -9 16 -9 25 0 9
-7 17 -15 17 -8 0 -15 9 -15 20 0 11 -6 19 -13 17 -8 -1 -11 2 -7 7 3 6 -7 23
-22 39 -15 15 -21 19 -13 8 15 -21 15 -21 -7 -3 -12 11 -20 24 -17 31 3 7 -8
23 -23 36 -20 18 -23 19 -13 5 14 -18 14 -19 -2 -6 -10 7 -16 16 -13 20 6 11
-84 111 -98 108 -6 -1 -11 3 -12 8 -1 19 -16 35 -27 29 -7 -4 -8 -2 -4 4 6 10
-46 57 -64 57 -5 0 -12 4 -17 9 -5 5 -2 6 7 2 8 -5 -3 8 -25 28 -22 19 -46 33
-53 31 -7 -3 -11 -1 -7 4 3 5 -18 26 -45 46 -44 32 -53 35 -68 24 -15 -13 -16
-12 -4 2 11 15 8 20 -22 39 -20 12 -40 19 -46 15 -6 -4 -9 -1 -8 7 2 7 -5 12
-14 12 -10 -1 -16 1 -13 5 6 11 -94 63 -107 55 -7 -5 -8 -2 -3 6 6 10 4 12 -9
7 -9 -4 -15 -3 -12 2 6 9 -126 72 -239 114 -306 115 -668 166 -990 141z m268
-11 c-40 -2 -107 -2 -150 0 -43 1 -10 3 72 3 83 0 118 -2 78 -3z m-285 -10
c-10 -2 -26 -2 -35 0 -10 3 -2 5 17 5 19 0 27 -2 18 -5z m445 0 c-7 -2 -21 -2
-30 0 -10 3 -4 5 12 5 17 0 24 -2 18 -5z m-526 -9 c-3 -3 -12 -4 -19 -1 -8 3
-5 6 6 6 11 1 17 -2 13 -5z m600 0 c-3 -3 -12 -4 -19 -1 -8 3 -5 6 6 6 11 1
17 -2 13 -5z m308 -64 c13 -6 15 -9 5 -9 -8 0 -22 4 -30 9 -18 12 -2 12 25 0z
m-1555 -125 c-14 -8 -29 -14 -35 -14 -5 0 1 6 15 14 14 8 30 14 35 14 6 0 -1
-6 -15 -14z m98 -152 c-15 -2 -42 -2 -60 0 -18 2 -6 4 27 4 33 0 48 -2 33 -4z
m565 -10 c-7 -2 -21 -2 -30 0 -10 3 -4 5 12 5 17 0 24 -2 18 -5z m-533 -553
l0 -550 85 0 85 0 2 208 3 207 73 3 72 3 0 -211 0 -210 75 0 75 0 0 438 0 438
-22 19 c-13 11 -26 20 -30 20 -3 0 -10 4 -15 9 -4 5 -3 6 4 3 10 -7 10 37 -2
95 -1 10 0 16 4 15 3 -1 17 8 31 21 13 12 28 22 32 22 5 0 7 4 4 8 -8 14 81
-3 101 -19 10 -7 19 -14 21 -15 2 -1 12 -26 23 -55 12 -30 17 -51 13 -46 -4 4
-14 -7 -21 -24 -10 -24 -13 -131 -13 -480 l0 -449 95 0 95 0 0 235 0 235 75 0
75 0 0 -235 0 -235 80 0 80 0 2 488 c0 268 1 492 1 498 0 6 5 11 11 12 6 1 28
5 49 8 70 12 67 38 67 -512 l0 -494 80 0 80 0 0 260 c0 143 3 260 8 260 4 1
39 2 77 3 l70 2 -2 -262 -3 -263 75 0 75 0 0 325 0 325 65 0 65 0 0 -325 0
-325 98 0 97 0 -3 220 -3 220 76 0 75 0 0 -220 0 -220 80 0 80 0 0 160 c0 179
0 180 77 180 72 0 74 -5 71 -183 l-3 -157 62 0 c34 0 69 -3 79 -7 13 -5 15 -3
9 8 -4 8 -5 11 -1 7 4 -3 8 -10 7 -15 0 -4 8 -17 19 -28 15 -16 36 -114 21
-99 -3 2 -15 -6 -29 -18 l-24 -23 -1748 -3 -1748 -2 -30 25 c-23 19 -31 35
-34 69 -1 24 -1 43 1 40 2 -2 17 8 33 21 24 20 40 25 89 25 l59 0 2 208 3 207
67 3 67 3 6 -33 c3 -18 5 -113 3 -211 l-3 -177 87 0 88 0 2 408 3 407 68 3 67
3 0 -411 0 -410 85 0 85 0 0 473 c0 261 3 508 6 550 l7 77 63 0 64 0 0 -550z
m1785 409 c1 -8 5 -13 11 -12 6 1 11 -17 13 -39 1 -23 5 -46 8 -52 3 -6 3 -8
-1 -4 -8 7 -53 -32 -49 -43 1 -3 -19 -2 -45 3 -26 5 -52 9 -58 10 -6 1 -11 8
-10 17 1 9 -4 15 -10 14 -8 -1 -8 10 -2 40 5 23 9 48 10 55 1 6 3 10 5 8 3 -2
16 2 30 9 32 17 98 13 98 -6z m-328 -55 c-3 -3 -12 -4 -19 -1 -8 3 -5 6 6 6
11 1 17 -2 13 -5z m55 -41 c11 -10 22 -18 25 -18 3 0 6 -21 7 -47 0 -25 -1
-44 -3 -42 -7 7 -51 -38 -45 -47 3 -5 -3 -6 -12 -2 -11 4 -15 2 -11 -4 10 -15
-57 1 -87 21 -49 32 -41 121 13 151 32 18 86 12 113 -12z m-679 -23 c-45 -27
-41 -32 6 -8 37 18 41 18 78 2 21 -9 43 -18 48 -18 6 -1 11 -33 11 -73 1 -46
-3 -71 -9 -70 -6 1 -11 -4 -12 -12 0 -8 -7 -15 -15 -17 -8 -1 -36 -7 -63 -12
-32 -6 -49 -6 -54 1 -4 6 -1 7 7 2 9 -6 11 -4 6 4 -5 7 -14 10 -22 7 -8 -3
-13 -2 -12 2 1 4 -4 18 -11 31 -12 21 -11 71 1 125 5 21 44 56 62 56 6 0 -4
-9 -21 -20z m92 10 c3 -6 -1 -7 -9 -4 -18 7 -21 14 -7 14 6 0 13 -4 16 -10z
m632 -42 c-3 -8 -6 -5 -6 6 -1 11 2 17 5 13 3 -3 4 -12 1 -19z m-1304 -15 c-7
-2 -19 -2 -25 0 -7 3 -2 5 12 5 14 0 19 -2 13 -5z m-58 -13 c-5 -9 36 -6 73 6
8 2 10 -1 6 -8 -5 -7 -2 -9 9 -5 8 3 21 -1 28 -9 17 -21 23 -92 9 -109 -6 -7
-9 -19 -8 -26 2 -7 -4 -14 -12 -14 -8 -1 -27 -5 -41 -9 -18 -5 -37 -2 -57 8
-16 8 -31 13 -34 11 -4 -4 -7 17 -12 80 -2 29 3 46 17 63 21 23 33 30 22 12z
m1922 -52 c15 -6 31 -11 34 -10 6 1 7 -3 15 -69 5 -42 3 -48 -27 -73 -27 -23
-39 -27 -68 -22 -20 3 -42 7 -48 8 -7 1 -11 3 -8 6 2 3 -1 14 -7 26 -14 27
-28 87 -18 81 4 -2 13 6 20 19 12 23 43 44 67 45 6 1 24 -4 40 -11z m-676 -46
c-7 -2 -18 1 -23 6 -8 8 -4 9 13 5 13 -4 18 -8 10 -11z m356 -18 c-3 -3 -12
-4 -19 -1 -8 3 -5 6 6 6 11 1 17 -2 13 -5z m-904 -51 c-7 -2 -21 -2 -30 0 -10
3 -4 5 12 5 17 0 24 -2 18 -5z m135 -596 l67 -3 -72 -2 -73 -2 2 228 3 227 2
-222 3 -222 68 -4z m1100 436 c-21 -2 -55 -2 -75 0 -21 2 -4 4 37 4 41 0 58
-2 38 -4z m-751 -90 c-3 -10 -5 -2 -5 17 0 19 2 27 5 18 2 -10 2 -26 0 -35z
m-1220 -100 c-2 -27 -3 -5 -3 47 0 52 1 74 3 48 2 -27 2 -69 0 -95z m1220
-175 c-2 -35 -3 -9 -3 57 0 66 1 94 3 63 2 -32 2 -86 0 -120z m-1527 -68 c0
-6 -30 -9 -72 -8 l-73 2 70 6 c39 4 71 7 73 8 1 1 2 -2 2 -8z m310 0 c0 -6
-31 -9 -77 -8 l-78 2 75 6 c41 4 76 7 78 8 1 1 2 -2 2 -8z m-952 -7 c-10 -2
-28 -2 -40 0 -13 2 -5 4 17 4 22 1 32 -1 23 -4z m300 0 c-21 -2 -57 -2 -80 0
-24 2 -7 4 37 4 44 0 63 -2 43 -4z m855 0 c-7 -2 -19 -2 -25 0 -7 3 -2 5 12 5
14 0 19 -2 13 -5z m380 0 c-23 -2 -64 -2 -90 0 -26 2 -7 3 42 3 50 0 71 -1 48
-3z m910 0 c-18 -2 -48 -2 -65 0 -18 2 -4 4 32 4 36 0 50 -2 33 -4z m310 0
c-23 -2 -64 -2 -90 0 -26 2 -7 3 42 3 50 0 71 -1 48 -3z m234 1 c-3 -3 -12 -4
-19 -1 -8 3 -5 6 6 6 11 1 17 -2 13 -5z m376 -1 c-18 -2 -48 -2 -65 0 -18 2
-4 4 32 4 36 0 50 -2 33 -4z m-125 -345 c-9 -5 -5 -8 12 -8 14 0 44 -9 68 -20
24 -11 48 -19 55 -17 6 1 11 -3 12 -10 0 -6 14 -24 31 -40 63 -58 89 -125 85
-223 -4 -84 -5 -98 -12 -94 -6 3 -44 -66 -41 -77 1 -8 -38 -45 -44 -42 -2 1
-31 -11 -64 -26 -34 -16 -56 -31 -50 -33 5 -1 -32 -3 -84 -3 -52 0 -89 3 -84
6 15 9 -29 22 -44 13 -7 -4 -10 -4 -6 1 4 4 -9 18 -28 31 -39 27 -48 30 -38
12 4 -8 3 -10 -2 -5 -5 5 -9 14 -9 20 -1 7 -6 11 -13 10 -6 -2 -9 3 -6 11 4
12 -20 41 -35 41 -3 0 -5 3 -3 8 1 4 -6 33 -17 64 -10 31 -21 50 -23 42 -3 -8
-2 0 1 16 3 17 6 49 6 72 0 23 3 37 7 30 5 -9 8 -8 8 3 0 8 9 32 20 53 11 20
19 40 18 44 -2 5 2 10 7 12 19 7 70 54 70 64 0 6 9 12 20 13 49 8 135 30 131
34 -2 3 11 5 30 6 21 0 30 -3 22 -8z m-1284 -96 c-5 -65 -10 -87 -22 -88 -7
-1 -17 -2 -23 -3 -5 0 -8 -5 -5 -10 4 -5 -8 -6 -27 -1 -48 12 -65 20 -71 36
-3 9 -10 13 -15 9 -5 -3 -13 0 -17 6 -4 7 -3 9 3 6 6 -4 10 5 11 21 1 46 8 77
18 78 5 0 17 4 27 9 10 4 34 5 53 2 25 -4 33 -3 28 6 -4 7 4 2 18 -11 19 -17
24 -30 22 -60z m-371 57 c12 -7 28 -19 35 -28 11 -13 12 -13 6 -1 -4 8 -4 12
1 8 9 -8 13 -98 4 -92 -9 5 -40 -31 -33 -39 4 -3 -283 -6 -636 -6 -354 0 -640
2 -637 6 4 3 -5 19 -18 35 -30 36 -31 57 -5 90 10 14 17 28 13 31 -3 3 276 6
621 7 465 0 632 -3 649 -11z m304 -175 c-3 -3 -12 -4 -19 -1 -8 3 -5 6 6 6 11
1 17 -2 13 -5z m-2520 -26 c-3 -8 -6 -5 -6 6 -1 11 2 17 5 13 3 -3 4 -12 1
-19z m4490 0 c-3 -8 -6 -5 -6 6 -1 11 2 17 5 13 3 -3 4 -12 1 -19z m-340 -20
c-3 -8 -6 -5 -6 6 -1 11 2 17 5 13 3 -3 4 -12 1 -19z m350 -90 c-2 -13 -4 -3
-4 22 0 25 2 35 4 23 2 -13 2 -33 0 -45z m-4510 0 c-2 -13 -4 -5 -4 17 -1 22
1 32 4 23 2 -10 2 -28 0 -40z m2276 -25 c-336 -2 -890 -2 -1230 0 -340 1 -64
2 612 2 677 0 955 -1 618 -2z m630 -24 c33 -15 51 -51 43 -86 -4 -15 -7 -33
-8 -39 -1 -6 -6 -12 -12 -14 -6 -2 -576 -5 -1267 -7 -1240 -3 -1256 -3 -1281
17 -14 11 -28 28 -30 38 -8 28 18 81 44 92 35 14 2481 13 2511 -1z m303 -4
c12 -8 24 -12 28 -10 3 3 4 2 2 -1 -3 -3 0 -18 5 -32 27 -72 -56 -130 -121
-85 -14 10 -27 18 -30 18 -2 0 -3 9 -2 20 2 17 1 17 -7 5 -15 -21 -13 -8 4 33
8 19 12 37 10 41 -3 3 -2 4 1 1 4 -2 16 2 28 10 11 8 30 15 41 15 11 0 30 -7
41 -15z m-239 -77 c-3 -8 -6 -5 -6 6 -1 11 2 17 5 13 3 -3 4 -12 1 -19z m1540
-130 c-2 -18 -4 -6 -4 27 0 33 2 48 4 33 2 -15 2 -42 0 -60z m-4510 -30 c-2
-18 -4 -6 -4 27 0 33 2 48 4 33 2 -15 2 -42 0 -60z m4500 -90 c-3 -7 -5 -2 -5
12 0 14 2 19 5 13 2 -7 2 -19 0 -25z m-430 -18 c7 -2 11 -6 10 -9 -1 -3 4 -16
11 -28 14 -26 9 -107 -7 -109 -6 -1 -16 -2 -22 -3 -5 0 -8 -4 -6 -8 3 -5 -759
-6 -1692 -3 -1490 4 -1700 7 -1716 20 -10 8 -21 13 -24 10 -3 -3 -5 13 -4 35
3 74 8 88 31 90 12 1 25 5 29 8 6 7 3366 4 3390 -3z m-804 -177 c-7 -2 -21 -2
-30 0 -10 3 -4 5 12 5 17 0 24 -2 18 -5z m-2456 -293 c3 -183 -3 -203 -60
-208 -23 -2 -48 3 -63 13 -24 15 -24 17 -24 186 l0 170 73 -3 72 -3 2 -155z
m313 -70 l0 -230 -70 0 -70 0 0 230 0 230 70 0 70 0 0 -230z m310 -248 l0
-478 28 -27 c16 -15 30 -25 33 -23 2 3 5 -24 5 -59 0 -35 -4 -61 -8 -59 -4 2
-10 -2 -15 -9 -15 -24 -57 -47 -88 -47 -33 0 -95 33 -95 50 0 6 -4 9 -9 5 -5
-3 -13 0 -17 6 -4 7 -3 10 2 6 5 -3 8 25 8 64 -1 46 2 67 10 66 8 -1 11 129
11 483 0 267 1 488 3 493 1 4 31 7 67 7 l65 0 0 -478z m320 173 l0 -305 -75 0
-75 0 0 305 0 305 75 0 75 0 0 -305z m283 -202 c2 -280 7 -524 11 -544 9 -41
-11 -92 -43 -109 -28 -14 -93 -12 -115 5 -10 8 -22 12 -26 10 -4 -3 -7 3 -6
13 0 9 -4 16 -10 15 -6 -1 -9 15 -7 40 5 71 9 92 19 93 5 0 17 4 27 8 16 8 17
41 17 492 l0 484 65 0 65 0 3 -507z m317 262 l0 -245 -23 -6 c-13 -3 -41 -4
-63 -2 l-39 3 -3 248 -2 247 65 0 65 0 0 -245z m310 -295 c0 -527 0 -540 -20
-560 -22 -22 -79 -27 -98 -8 -9 9 -12 147 -12 560 l0 548 65 0 65 0 0 -540z
m320 245 l0 -296 -77 3 -78 3 -4 30 c-1 17 0 148 4 293 l7 262 74 0 74 0 0
-295z m270 -182 c1 -411 3 -481 16 -498 8 -11 20 -20 26 -20 6 0 13 -7 15 -15
4 -13 3 -13 -6 -1 -7 11 -8 3 -4 -25 7 -51 -16 -98 -58 -120 -29 -15 -41 -15
-126 -2 -7 1 -21 10 -30 21 -11 13 -12 17 -4 12 11 -7 13 -4 6 11 -11 23 -15
125 -4 119 4 -3 14 6 23 20 14 21 16 80 16 500 l0 475 65 0 65 0 0 -477z m330
126 c-1 -344 3 -391 31 -373 5 3 6 -3 2 -12 -3 -10 -2 -15 3 -12 5 4 9 -15 9
-42 0 -27 -2 -48 -5 -47 -7 3 -55 -47 -53 -53 3 -9 -80 -4 -101 5 -15 7 -17 5
-11 -6 5 -8 5 -11 -1 -6 -5 5 -9 14 -9 20 -1 7 -6 11 -13 10 -7 -2 -11 0 -11
5 3 19 -2 33 -10 28 -5 -4 -7 4 -3 16 3 15 2 19 -7 14 -6 -4 0 18 14 50 l25
56 0 349 0 349 70 0 70 0 0 -351z m325 148 c0 -225 3 -217 -82 -217 -40 0 -55
4 -62 18 -6 11 -7 94 -4 210 l6 193 71 -3 71 -3 0 -198z m-2318 -255 c-1 -81
-3 -12 -3 153 0 165 2 231 3 147 2 -84 2 -219 0 -300z m-1457 253 c0 -5 -5 -3
-10 5 -5 8 -10 20 -10 25 0 6 5 3 10 -5 5 -8 10 -19 10 -25z m4176 -172 c-8
-15 -15 -25 -16 -21 0 12 23 58 27 54 3 -2 -2 -17 -11 -33z m-448 -60 c-16 -2
-40 -2 -55 0 -16 2 -3 4 27 4 30 0 43 -2 28 -4z m-2805 -180 c-7 -2 -19 -2
-25 0 -7 3 -2 5 12 5 14 0 19 -2 13 -5z m680 -10 c-7 -2 -21 -2 -30 0 -10 3
-4 5 12 5 17 0 24 -2 18 -5z m-642 -16 c21 -16 39 -51 39 -76 0 -29 -20 -69
-39 -77 -28 -12 -91 -21 -85 -13 2 4 -4 13 -15 18 -11 6 -23 20 -26 31 -4 11
-9 18 -13 16 -4 -2 -7 11 -8 30 0 21 3 30 8 22 6 -10 8 -10 8 1 0 8 10 25 22
38 24 26 82 31 109 10z m1262 -30 c38 -7 50 -36 51 -122 0 -31 -4 -50 -11 -50
-14 0 -28 -13 -28 -28 0 -11 -22 -16 -98 -20 -27 -2 -51 1 -54 6 -4 6 0 7 8 2
8 -4 3 3 -11 16 -13 13 -29 24 -35 24 -6 0 -10 22 -9 50 1 59 6 96 13 90 8 -9
31 17 24 28 -3 5 -2 8 3 5 5 -3 18 -2 29 3 18 8 70 6 118 -4z m601 -99 c13 -3
20 -16 23 -39 8 -64 8 -94 -2 -94 -17 -1 -71 -34 -56 -35 8 0 12 -2 9 -5 -3
-3 -27 4 -54 16 -27 12 -51 22 -54 21 -11 -1 -9 94 3 109 29 37 58 43 131 27z
m-1241 -30 c-4 -7 10 -12 28 -10 3 1 6 -4 7 -11 14 -87 13 -93 -8 -120 -17
-22 -29 -27 -65 -27 -25 0 -47 6 -55 15 -7 8 -15 13 -19 11 -3 -2 -7 15 -9 39
-2 34 3 49 22 72 14 17 24 32 22 34 -3 2 15 4 39 4 24 0 41 -3 38 -7z m-638
-18 c-3 -5 -18 -9 -33 -9 l-27 1 30 8 c17 4 31 8 33 9 2 0 0 -3 -3 -9z m-500
-120 c10 -11 16 -20 13 -20 -3 0 -13 9 -23 20 -10 11 -16 20 -13 20 3 0 13 -9
23 -20z m2726 -173 c-10 -9 -11 -8 -5 6 3 10 9 15 12 12 3 -3 0 -11 -7 -18z
m-161 -387 c-8 -5 -19 -10 -25 -10 -5 0 -3 5 5 10 8 5 20 10 25 10 6 0 3 -5
-5 -10z m-1305 -140 c25 -11 -1 -11 -35 0 -20 6 -21 8 -5 8 11 0 29 -3 40 -8z"/>
<path d="M1929 4143 c-13 -16 -12 -17 4 -4 9 7 17 15 17 17 0 8 -8 3 -21 -13z"/>
<path d="M2050 4156 c0 -2 8 -10 18 -17 15 -13 16 -12 3 4 -13 16 -21 21 -21
13z"/>
<path d="M4389 2553 c-13 -16 -12 -17 4 -4 9 7 17 15 17 17 0 8 -8 3 -21 -13z"/>
<path d="M2890 3016 c0 -2 8 -10 18 -17 15 -13 16 -12 3 4 -13 16 -21 21 -21
13z"/>
<path d="M2690 1316 c0 -2 8 -10 18 -17 15 -13 16 -12 3 4 -13 16 -21 21 -21
13z"/>
<path d="M4320 4236 c0 -2 8 -10 18 -17 15 -13 16 -12 3 4 -13 16 -21 21 -21
13z"/>
<path d="M620 1190 c6 -11 13 -20 16 -20 2 0 0 9 -6 20 -6 11 -13 20 -16 20
-2 0 0 -9 6 -20z"/>
</g>
</svg>
