<?xml version="1.0" encoding="UTF-8"?>
<svg id="Layer_2" data-name="Layer 2" xmlns="http://www.w3.org/2000/svg" viewBox="0 0 1024 1024">
  <defs>
    <style>
      .cls-1 {
        fill: #172f3e;
      }

      .cls-1, .cls-2 {
        stroke-width: 0px;
      }

      .cls-2 {
        fill: #DADADB;
      }
    </style>
  </defs>
  <path class="cls-1" d="M512,0C229.23,0,0,229.23,0,512s229.23,512,512,512,512-229.23,512-512S794.77,0,512,0ZM907.68,256.08c1.95,2.31,1.47,3.91-.78,5.42-10.32,6.95-20.66,13.87-30.96,20.85-2.43,1.64-3.03-.33-3.96-1.78-14.87-23.05-32.1-44.21-51.24-63.86-44.81-46.01-96.49-81.92-156.59-105.04-31.99-12.31-65.05-21-99.24-25.14-21.04-2.55-42.1-3.76-63.27-3.17-1.78.05-3.56.27-5.34.27-2.68,0-3.77.79-3.75,3.91.18,42.25.25,84.49.12,126.74-.01,3.93,2.1,5.36,4.76,7.14,19.53,13,17.01,40.61-.35,51.81-13.62,8.78-33.12,5.48-42.62-7.27-10.07-13.52-7.91-31.31,5.16-42.41,1.02-.86,2.01-1.85,3.19-2.4,3.07-1.42,3.78-3.72,3.75-6.95-.14-12.45.02-24.9.03-37.36.03-27.79.05-55.59.07-83.38,0-1.11-.11-2.23,0-3.33.35-3.23-.68-4.31-4.14-3.62-8.94,1.79-17.95,3.2-26.92,4.82-3.94.71-7.86,1.52-11.78,2.31-5.23,1.06-5.28,1.07-5.29,6.34-.03,19.35-.03,38.69-.03,58.04,0,29.8,0,59.59,0,89.39h.05c0,48.47.05,96.95-.09,145.42-.01,4.35,1.24,7.34,4.38,10.4,19.91,19.42,39.55,39.11,59.37,58.62,7.92,7.8,15.99,15.45,24.14,23.01,2.98,2.77,4.26,5.73,4.25,9.9-.09,62.71-.06,125.41.15,188.12.02,4.7-1.3,7.8-4.94,10.69-6.09,4.84-11.52,10.52-17.73,15.19-4.84,3.64-6.08,7.9-6.05,13.67.3,59.59.36,119.18.48,178.78.02,11.34.14,22.68-.06,34.02-.06,3.31.76,4.81,4.25,4.85,10.24.12,20.48.38,30.71.71,2.98.1,4.01-1.2,3.86-3.97-.09-1.55-.01-3.11-.01-4.67.04-62.71.13-125.41.01-188.12,0-4.45,1.36-7.5,4.57-10.32,5.51-4.84,10.67-10.1,16.21-14.91,2.97-2.58,3.86-5.43,3.85-9.29-.12-64.04-.13-128.08-.11-192.11.03-112.96.06-225.92.23-338.87,0-4.86-.85-7.78-5.69-10.35-12.53-6.66-18.43-20.81-15.19-33.85,3.55-14.31,16.32-25.24,30.3-25.93,13.01-.65,27.13,8.46,32.29,20.83,5.01,12.02,2.14,26.46-8.44,35.14-5.71,4.69-7.07,9.61-7.05,16.49.35,100.95.57,201.9.58,302.84,0,78.71-.38,157.41-.39,236.11,0,4.94-1.48,8.42-4.97,11.59-4.94,4.49-9.49,9.41-14.56,13.73-3.54,3.02-4.75,6.37-4.74,10.97.17,53.14.15,106.29.19,159.43,0,6.23-.04,12.45.02,18.68.05,5.41.13,5.7,5.73,5.03,9.49-1.13,18.98-2.42,28.39-4.07,38.24-6.67,75.15-17.61,110.55-33.75,33.2-15.14,63.6-34.5,91.7-57.65,72.14-59.44,120-134.18,142.89-224.85,11.19-44.32,15.28-89.16,12.3-134.76-3.38-51.68-15.29-101.23-36.24-148.58-3.13-7.08-6.84-13.94-10.72-20.64-1.9-3.28-.79-4.57,1.89-6.22,8.9-5.46,17.65-11.16,26.52-16.67,4.59-2.85,4.71-2.78,7.14,1.77,11.5,21.55,21.44,43.72,29.25,66.93,10.74,31.93,17.87,64.62,21.55,97.98,3.56,32.31,3.71,64.72.79,97.19-3.15,35.09-10.01,69.37-20.56,102.9-26.26,83.46-73.37,153.48-139.24,210.68-59.86,51.98-129.01,85.84-206.82,102.24-39.44,8.31-79.15,11.85-119.35,10.2-10.88-.45-21.72-1.8-32.55-3.02-5.58-.63-5.58-.92-5.6-6.44-.04-19.35-.08-38.69-.08-58.04.02-57.37.06-114.74.09-172.11,0-.89.05-1.78-.01-2.67-.1-1.3-.27-2.6-.42-3.89-1.29.68-2.83,1.1-3.84,2.07-10.28,9.85-20.42,19.85-30.75,29.65-2.41,2.29-2.65,4.83-2.64,7.8.06,31.35.05,62.71.06,94.06,0,31.8,0,63.59,0,95.39,0,7.45,0,7.37-7.14,5.97-45.96-9.06-88.79-26.43-129.97-48.37-43.97-23.43-83.39-52.7-117.08-89.47-44.75-48.83-77.79-104.58-98.36-167.54-9.25-28.31-15.43-57.31-19.11-86.92-3.83-30.77-4.69-61.61-3.67-92.51,1.73-52.62,12.39-103.49,32.37-152.25,18.5-45.15,44.19-86,75.67-123.26,30.37-35.95,65.38-66.69,105.06-91.93,50.65-32.21,105-55.71,164.17-67.42,35.73-7.07,71.78-10.33,108.17-9.14,71.17,2.31,138.08,20.52,201.06,53.71,69.89,36.82,126.63,88.29,172.22,152.41,1.93,2.72,3.71,5.56,5.86,8.09ZM911.76,495.24c-.05,4.9-.1,4.96-5.25,4.96-24.72.01-49.44-.01-74.16-.02-10.02,0-20.04,0-30.07,0v.18c-33.18,0-66.37.21-99.55-.17-6.91-.08-11.71,2.24-16.28,6.96-11.6,11.99-23.44,23.75-35.22,35.57-3.93,3.94-7.82,7.94-12,11.6-3.33,2.91-4.25,6.25-4.24,10.57.14,54.26.25,108.51-.01,162.77-.04,8.87,1.28,15.11,9.77,20.71,13.95,9.22,17.48,25.87,11.39,41.55-5.84,15.04-19.23,23.71-35.45,22.97-15.45-.71-28.56-10.98-32.93-25.78-4.34-14.69.84-31.2,13.7-39.36,5.96-3.79,7.43-7.83,7.42-14.46-.22-135.86-.24-271.72-.08-407.58,0-5.24-1.11-8.88-4.84-12.71-9.15-9.39-11.5-20.9-7.38-33.28,4.09-12.28,12.6-20.16,25.52-22.82,15.24-3.14,33.4,7.96,38.32,23.38,4.28,13.41-2.7,30.52-15.78,38.54-1.7,1.04-3.46,2.16-5.35,2.66-3.55.93-4.43,3.25-4.19,6.47.06.88,0,1.78,0,2.67-.01,61.37-.02,122.74-.04,184.11,0,.89-.04,1.78,0,2.67.02.43.07.85.12,1.28.05.43.11.85.15,1.28.23-.11.48-.21.72-.3.74-.29,1.51-.55,2.02-1.06,9.11-9.14,18.13-18.36,27.22-27.52,4.7-4.74,9.61-9.28,14.19-14.12,2.51-2.65,5.27-3.5,8.85-3.48,26.28.09,52.56,0,78.84-.03,47.21-.05,94.43-.06,141.64-.22,2.95-.01,3.16.89,3.07,3.39-.23,6.22-.07,12.45-.13,18.68ZM906.41,557.97c-.28,2.89.68,7.96-1.35,9.89-2.05,1.95-7.07.93-10.79.96-3.49.03-8.23,1.03-10.13-.78-1.86-1.78-1-6.57-1.01-10.04-.01-3.72-1.01-8.76.95-10.79,1.93-2,7.02-1.15,10.73-1.19,3.67-.04,8.42-.91,10.68.98,1.84,1.54.7,6.62.93,10.98ZM837.77,651.46v.2c-12.91,0-25.81.07-38.72-.05-3.19-.03-4.99.77-6.68,3.93-6.99,13.04-22.71,19.87-36.87,16.61-14.99-3.45-26.14-15.86-26.3-31.19-.14-13.83,6.15-25,18.75-31.42,12.86-6.56,25.45-4.93,36.87,3.82,2.94,2.26,5.67,5.16,7.55,8.33,2.21,3.73,4.7,4.98,9.06,4.93,27.59-.32,55.18-.29,82.78-.39,1.11,0,2.23-.03,3.34-.02,4.59.06,4.68.1,3.1,4.2-2.22,5.79-4.76,11.45-6.84,17.29-1.1,3.08-2.92,3.85-5.98,3.82-13.35-.14-26.7-.06-40.05-.06ZM834.09,730.46c-11.71-.05-22.35-10.5-22.39-21.99-.04-12.17,10.84-23.87,22.54-23.51,12.22.38,21.53,8.63,21.92,22.84.35,12.64-9.81,22.71-22.07,22.66ZM695.27,745.05c.15.01.31.03.46.04-.4,3.66.42,8.48-1.6,10.63-1.68,1.79-6.71.48-10.26.48q-11.02.02-11.04-11.3c0-3.11.02-6.22.02-9.32,0-2.18,1.03-3.18,3.28-3.13,5.33.12,10.67.21,16.01.17,2.28-.02,3.21.84,3.14,3.11-.1,3.1-.02,6.21-.02,9.32ZM680.22,819.17c-.04-20.27,16.55-37.46,36.27-37.61,21.15-.16,38.73,16.75,38.85,37.36.12,20.68-16.85,37.79-37.54,37.89-24.03.12-38.74-21.28-37.59-37.64ZM671.2,684.26c-5.85-5.54-8.96-11.13-8.34-19.58.86-11.72.22-23.55.22-35.33h-.09c0-13.78.05-27.57-.04-41.35-.02-2.82.61-4.98,2.73-7.06,12.53-12.32,24.95-24.75,37.31-37.24,2.35-2.37,4.81-3.28,8.21-3.27,23.82.13,47.65-.05,71.47.06,4.24.02,7.14-.97,10.12-4.47,13.66-16.05,33.4-18.38,50.04-6.46,12.25,8.77,17.59,24.23,13.48,39-4.14,14.89-16.51,25.41-31.71,26.25-17.1.95-30.32-9.34-36.2-23.33q-2.34-5.56-8.51-5.56c-18.04.03-36.07.15-54.11.09-5.11-.02-9.36.99-13.12,5.01-6.22,6.65-13.01,12.77-19.64,19.03-2.39,2.26-3.53,4.7-3.5,8.15.19,20.67.3,41.35.04,62.02-.05,4.25,2.1,6.53,4.67,8.98,21.93,20.83,43.91,41.6,65.77,62.49,15.44,14.75,30.73,29.66,46.04,44.55,3.77,3.66,3.69,3.76-.02,7.55-3.89,3.98-7.98,7.78-11.61,11.97-2.42,2.79-4.14,2.42-6.51.13-8.8-8.5-17.71-16.88-26.55-25.34-30.04-28.78-59.97-57.67-90.17-86.27ZM641.91,874.91c-.23,11.81-10.22,21.59-21.88,21.44-12.1-.17-21.33-9.63-21.24-21.78.09-12.29,9.89-22.25,21.81-22.18,12.02.07,21.54,10.14,21.31,22.52ZM610.64,219.3c-.04-.66,0-1.33,0-1.99q0-10.3,10.66-10.25c3.33.02,6.65.1,9.98.06,2.23-.03,3.25,1,3.24,3.18,0,5.98-.02,11.96.03,17.93.02,2.01-.93,2.74-2.84,2.7-3.1-.06-6.21-.02-9.31-.02,0,.08-.01.17-.02.25-3.71-.27-8.76.81-10.75-1.18-1.95-1.95-.8-7.01-1-10.7ZM624.03,151.36c.06,0,.12,0,.18,0,0-3.1.07-6.21-.02-9.31-.07-2.34.99-3.06,3.22-3.01,5.32.1,10.65.1,15.98.01,2.69-.04,3.41,1.3,3.36,3.71-.13,5.76-.24,11.52-.17,17.28.03,2.68-1.22,3.49-3.65,3.4-2.22-.09-4.44.06-6.66-.05-3.91-.2-8.98.84-11.37-1.21-1.95-1.67-.7-7.07-.87-10.82ZM713.66,250.38c.31,13.11.28,26.23,0,39.34-.09,4.17,1.23,6.98,4.2,9.8,23.39,22.19,46.65,44.52,69.91,66.86,2.56,2.46,6.63,5.1,6.75,7.8.1,2.4-4.28,5.03-6.74,7.5-1.73,1.73-3.57,3.35-5.32,5.05-5.86,5.71-5.82,5.68-11.49.24-24.39-23.41-48.81-46.79-73.21-70.19-1.76-1.69-3.39-3.53-5.21-5.17-2.31-2.08-3.11-4.49-3.04-7.65.22-9.11.08-18.22.08-27.34-.11,0-.23,0-.34,0,0-8.67-.24-17.34.1-26,.17-4.16-1.2-6.1-5.03-7.85-12-5.51-19.98-14.85-22.59-27.85-3.3-16.45,2.38-29.87,16.14-39.35,13.52-9.32,27.8-8.54,41.48-.47,26.24,15.47,26.06,50.65-.3,66.05-4.04,2.36-5.51,4.66-5.4,9.24ZM785.57,222.27q-.25,10.94-11.45,11.17-11.94.24-11.93-11.55c.01-11.11.01-11.14,11.23-11.12,3.74,0,8.77-1.13,10.84.8,2.02,1.88.99,7,1.31,10.71ZM801.44,322.95c-17.71-.17-32.69-15.23-32.69-32.88,0-17.39,14.62-32.45,31.45-32.39,18.06.07,33.82,14.82,33.95,31.77.14,18.16-15,33.67-32.7,33.5ZM850,333.81c10.92.06,21.45,10.96,21.54,22.3.09,11.62-9.87,21.76-21.48,21.86-11.46.1-21.73-10.06-21.84-21.59-.11-11.78,10.36-22.63,21.78-22.57ZM666.98,344.11c1.57-1.82,6.64-.78,10.15-.76,3.95.03,9.27-1.1,11.46.95,2.08,1.96,1.04,7.38,1.12,11.28.06,3.51,1.12,8.6-.7,10.14-2.27,1.93-7.02.95-10.7,1.22-.22.02-.44,0-.67,0,0,.07,0,.13-.01.2-3.73-.22-9.14.95-10.75-1-2.02-2.45-1.13-7.46-1.11-11.37.02-3.67-.72-8.41,1.22-10.67ZM703.8,395.8c5.9,2.6,10.75,6.54,13.54,12.29,1.77,3.65,4.12,4.35,7.78,4.34,30.69-.12,61.38-.07,92.08-.07,1.56,0,3.19-.27,4.64.12.99.27,2.41,1.46,2.44,2.28.25,6.88.19,13.76.29,20.64.04,2.74-1.85,2.57-3.64,2.57-6.89.01-13.79,0-20.68,0-10.01,0-20.02,0-30.03,0v.08c-16.01,0-32.03.07-48.04-.06-3.09-.02-5.19.76-7.47,3.08-8.91,9.07-19.89,11.14-31.89,7.82-15.73-4.34-23.68-22.91-17.48-37.4,6.69-15.64,22.96-22.53,38.46-15.69ZM876.04,451.03c-12.5,0-23.35-10.47-22.87-22.77.63-15.96,12.41-22.92,22.88-22.55,12.15,0,22.15,10.24,22.14,22.67,0,12.5-9.93,22.66-22.14,22.65ZM514.68,427.4c0,.22.01.44,0,.66-.19,3.48.89,8.22-.95,10.1-1.84,1.88-6.61.9-10.08,1.18-3.76-.27-8.83.79-10.79-1.2-1.95-1.98-.97-7.03-.93-10.73.03-3.69-.78-8.44,1.15-10.73,1.51-1.79,6.65-.69,10.17-.61,3.67.09,8.43-.75,10.66,1.17,1.82,1.57.62,6.63.76,10.14ZM483.32,391.96c-21.3.23-39.6-19.09-39.42-40.58.2-23.03,21.85-39.16,39.35-38.05,21.77.14,39.93,17.91,39.67,39.28-.26,21.83-17.07,39.12-39.59,39.36Z"/>
  <path class="cls-2" d="M729.61,95.58c-62.99-33.19-129.89-51.39-201.06-53.71-36.39-1.18-72.45,2.08-108.17,9.14-59.17,11.7-113.52,35.2-164.17,67.42-39.69,25.24-74.69,55.98-105.06,91.93-31.48,37.26-57.17,78.11-75.67,123.26-19.97,48.76-30.64,99.63-32.37,152.25-1.02,30.89-.15,61.73,3.67,92.51,3.68,29.61,9.86,58.61,19.11,86.92,20.57,62.96,53.62,118.71,98.36,167.54,33.69,36.76,73.11,66.04,117.08,89.47,41.18,21.94,84,39.31,129.97,48.37,7.14,1.41,7.14,1.48,7.14-5.97,0-31.8,0-63.59,0-95.39,0-31.35,0-62.71-.06-94.06,0-2.97.23-5.52,2.64-7.8,10.33-9.8,20.47-19.8,30.75-29.65,1.01-.97,2.54-1.39,3.84-2.07.14,1.3.32,2.59.42,3.89.06.88.01,1.78.01,2.67-.03,57.37-.07,114.74-.09,172.11,0,19.35.04,38.69.08,58.04.01,5.52.01,5.81,5.6,6.44,10.83,1.23,21.68,2.58,32.55,3.02,40.19,1.65,79.9-1.89,119.35-10.2,77.81-16.4,146.96-50.26,206.82-102.24,65.87-57.2,112.98-127.22,139.24-210.68,10.55-33.53,17.41-67.81,20.56-102.9,2.92-32.47,2.77-64.89-.79-97.19-3.67-33.36-10.81-66.05-21.55-97.98-7.81-23.21-17.75-45.39-29.25-66.93-2.43-4.56-2.55-4.62-7.14-1.77-8.87,5.51-17.62,11.21-26.52,16.67-2.69,1.65-3.79,2.95-1.89,6.22,3.89,6.7,7.59,13.56,10.72,20.64,20.95,47.36,32.85,96.9,36.24,148.58,2.99,45.61-1.11,90.45-12.3,134.76-22.89,90.67-70.75,165.41-142.89,224.85-28.1,23.15-58.5,42.52-91.7,57.65-35.4,16.14-72.31,27.08-110.55,33.75-9.42,1.64-18.9,2.94-28.39,4.07-5.6.67-5.68.38-5.73-5.03-.06-6.23-.01-12.45-.02-18.68-.03-53.14-.02-106.29-.19-159.43-.01-4.59,1.19-7.95,4.74-10.97,5.07-4.32,9.63-9.25,14.56-13.73,3.49-3.17,4.97-6.65,4.97-11.59,0-78.7.39-157.41.39-236.11,0-100.95-.23-201.9-.58-302.84-.02-6.88,1.34-11.81,7.05-16.49,10.58-8.68,13.44-23.12,8.44-35.14-5.15-12.37-19.27-21.48-32.29-20.83-13.98.7-26.74,11.62-30.3,25.93-3.24,13.04,2.66,27.19,15.19,33.85,4.84,2.57,5.7,5.5,5.69,10.35-.17,112.96-.2,225.92-.23,338.87-.02,64.04-.02,128.08.11,192.11,0,3.86-.88,6.71-3.85,9.29-5.54,4.81-10.7,10.07-16.21,14.91-3.22,2.83-4.58,5.87-4.57,10.32.12,62.7.03,125.41-.01,188.12,0,1.56-.08,3.12.01,4.67.15,2.77-.88,4.07-3.86,3.97-10.23-.33-20.47-.59-30.71-.71-3.49-.04-4.31-1.54-4.25-4.85.2-11.34.09-22.68.06-34.02-.12-59.59-.18-119.18-.48-178.78-.03-5.77,1.21-10.04,6.05-13.67,6.21-4.67,11.64-10.35,17.73-15.19,3.64-2.89,4.95-5.99,4.94-10.69-.21-62.7-.23-125.41-.15-188.12,0-4.17-1.27-7.13-4.25-9.9-8.15-7.56-16.22-15.21-24.14-23.01-19.82-19.51-39.46-39.2-59.37-58.62-3.14-3.06-4.4-6.05-4.38-10.4.14-48.47.09-96.95.09-145.42h-.05c0-29.8,0-59.59,0-89.39,0-19.35,0-38.69.03-58.04,0-5.27.06-5.28,5.29-6.34,3.92-.79,7.84-1.61,11.78-2.31,8.97-1.61,17.99-3.02,26.92-4.82,3.46-.69,4.49.38,4.14,3.62-.12,1.1,0,2.22,0,3.33-.02,27.79-.03,55.59-.07,83.38-.01,12.45-.17,24.91-.03,37.36.04,3.24-.68,5.53-3.75,6.95-1.18.55-2.18,1.54-3.19,2.4-13.07,11.1-15.23,28.9-5.16,42.41,9.5,12.76,29,16.05,42.62,7.27,17.36-11.2,19.88-38.81.35-51.81-2.66-1.77-4.77-3.2-4.76-7.14.13-42.25.06-84.49-.12-126.74-.01-3.11,1.07-3.91,3.75-3.91,1.78,0,3.56-.22,5.34-.27,21.17-.59,42.23.61,63.27,3.17,34.19,4.15,67.24,12.84,99.24,25.14,60.09,23.12,111.78,59.03,156.59,105.04,19.14,19.65,36.37,40.81,51.24,63.86.93,1.45,1.54,3.42,3.96,1.78,10.3-6.98,20.64-13.9,30.96-20.85,2.25-1.52,2.73-3.11.78-5.42-2.14-2.54-3.93-5.38-5.86-8.09-45.59-64.12-102.33-115.58-172.22-152.41ZM460.41,478.2c6.31,6.27,12.62,12.55,19.17,18.57,3.18,2.92,4.46,5.98,4.44,10.39-.17,48.91-.11,97.82-.11,146.73,0,5.11-.21,10.24.12,15.34.25,3.94-1.25,6.49-4.11,9.11-27.75,25.37-55.29,50.95-83.07,76.28-3.8,3.47-5.17,7.03-5.15,12.1.16,48.47.07,96.94.05,145.4,0,1.78.01,3.56-.02,5.34-.11,5.46-.14,5.53-5.16,3.94-60.71-19.26-115.75-48.94-163.78-90.8-42.95-37.43-76.4-82.2-100.17-134.06-15.05-32.84-24.7-67.31-31.59-102.68-7.96-40.86-9.92-82.05-6.37-123.41,2.68-31.22,9.33-61.74,18.79-91.71,18.61-58.9,50.65-109.62,92.31-154.8,49.23-53.39,108.86-90.76,176.75-115.62,5-1.83,10.02-3.58,15.03-5.37,3.2-1.15,4.6-.11,4.22,3.33-.15,1.32-.03,2.67-.03,4,0,48.69,0,97.38,0,146.07,0,49.14.05,98.27-.08,147.4-.01,4.07.97,7.08,3.92,9.99,21.69,21.41,43.22,42.99,64.83,64.47Z"/>
  <path class="cls-2" d="M908.83,473.17c-47.21.17-94.43.17-141.64.22-26.28.03-52.56.12-78.84.03-3.58-.01-6.34.83-8.85,3.48-4.58,4.85-9.49,9.39-14.19,14.12-9.09,9.16-18.11,18.38-27.22,27.52-.51.51-1.28.77-2.02,1.06-.25.1-.49.19-.72.3-.05-.43-.1-.85-.15-1.28-.05-.43-.09-.85-.12-1.28-.04-.89,0-1.78,0-2.67.01-61.37.02-122.74.04-184.11,0-.89.06-1.78,0-2.67-.23-3.22.64-5.54,4.19-6.47,1.89-.5,3.65-1.62,5.35-2.66,13.07-8.01,20.06-25.13,15.78-38.54-4.92-15.42-23.08-26.52-38.32-23.38-12.93,2.66-21.43,10.54-25.52,22.82-4.12,12.37-1.77,23.89,7.38,33.28,3.73,3.83,4.85,7.47,4.84,12.71-.15,135.86-.14,271.72.08,407.58.01,6.63-1.46,10.67-7.42,14.46-12.86,8.16-18.03,24.67-13.7,39.36,4.37,14.8,17.48,25.07,32.93,25.78,16.22.75,29.62-7.93,35.45-22.97,6.09-15.68,2.56-32.33-11.39-41.55-8.49-5.61-9.81-11.84-9.77-20.71.26-54.25.15-108.51.01-162.77-.01-4.32.92-7.66,4.24-10.57,4.18-3.66,8.07-7.66,12-11.6,11.78-11.82,23.63-23.57,35.22-35.57,4.57-4.72,9.37-7.04,16.28-6.96,33.18.37,66.37.17,99.55.17v-.18c10.02,0,20.04,0,30.07,0,24.72,0,49.44.03,74.16.02,5.15,0,5.2-.07,5.25-4.96.07-6.23-.1-12.46.13-18.68.09-2.5-.12-3.4-3.07-3.39ZM638.23,776.44c.12,8.95-6.9,15.14-16.34,15.86-7.57.57-14.72-6.98-14.8-14.97-.08-8.05,7.41-16.15,15.3-16.54,7.88-.39,15.67,7.31,15.84,15.65Z"/>
  <path class="cls-2" d="M787.92,795.88c2.37,2.29,4.09,2.66,6.51-.13,3.63-4.2,7.73-7.99,11.61-11.97,3.71-3.8,3.79-3.89.02-7.55-15.31-14.89-30.6-29.79-46.04-44.55-21.86-20.9-43.85-41.66-65.77-62.49-2.58-2.45-4.73-4.74-4.67-8.98.26-20.67.15-41.35-.04-62.02-.03-3.45,1.11-5.89,3.5-8.15,6.63-6.26,13.42-12.38,19.64-19.03,3.76-4.02,8.01-5.03,13.12-5.01,18.03.06,36.07-.05,54.11-.09q6.16-.01,8.51,5.56c5.88,13.99,19.1,24.28,36.2,23.33,15.2-.84,27.56-11.36,31.71-26.25,4.11-14.77-1.24-30.23-13.48-39-16.64-11.91-36.38-9.58-50.04,6.46-2.99,3.51-5.88,4.49-10.12,4.47-23.82-.11-47.65.07-71.47-.06-3.4-.02-5.86.9-8.21,3.27-12.37,12.48-24.78,24.92-37.31,37.24-2.12,2.08-2.75,4.25-2.73,7.06.1,13.78.04,27.57.04,41.35h.09c0,11.78.65,23.61-.22,35.33-.62,8.45,2.49,14.05,8.34,19.58,30.2,28.61,60.13,57.5,90.17,86.27,8.83,8.46,17.75,16.84,26.55,25.34ZM822.05,543.33c8.13.27,15.49,7.54,15.49,15.29,0,8.39-7.28,15.34-15.98,15.25-8.2-.08-15.53-7.18-15.55-15.05-.02-7.88,8.14-15.76,16.04-15.49Z"/>
  <path class="cls-2" d="M719.07,241.14c26.36-15.4,26.54-50.58.3-66.05-13.68-8.07-27.96-8.85-41.48.47-13.76,9.48-19.44,22.9-16.14,39.35,2.61,13,10.59,22.35,22.59,27.85,3.83,1.76,5.2,3.69,5.03,7.85-.34,8.65-.1,17.33-.1,26,.11,0,.23,0,.34,0,0,9.11.14,18.23-.08,27.34-.08,3.16.73,5.57,3.04,7.65,1.81,1.64,3.44,3.48,5.21,5.17,24.4,23.4,48.82,46.79,73.21,70.19,5.67,5.44,5.63,5.47,11.49-.24,1.75-1.71,3.6-3.32,5.32-5.05,2.46-2.47,6.84-5.09,6.74-7.5-.12-2.7-4.19-5.34-6.75-7.8-23.26-22.33-46.52-44.66-69.91-66.86-2.98-2.82-4.3-5.63-4.2-9.8.28-13.11.32-26.23,0-39.34-.11-4.58,1.37-6.88,5.4-9.24Z"/>
  <path class="cls-2" d="M877.82,651.52c3.07.03,4.89-.73,5.98-3.82,2.08-5.83,4.61-11.5,6.84-17.29,1.58-4.1,1.48-4.14-3.1-4.2-1.11-.02-2.23.01-3.34.02-27.59.09-55.19.07-82.78.39-4.36.05-6.84-1.2-9.06-4.93-1.88-3.17-4.61-6.08-7.55-8.33-11.42-8.75-24.01-10.38-36.87-3.82-12.6,6.42-18.89,17.59-18.75,31.42.16,15.33,11.31,27.74,26.3,31.19,14.17,3.26,29.88-3.58,36.87-16.61,1.69-3.16,3.5-3.95,6.68-3.93,12.91.11,25.81.05,38.72.05v-.2c13.35,0,26.7-.08,40.05.06Z"/>
  <path class="cls-2" d="M682.83,448.89c12.01,3.32,22.98,1.25,31.89-7.82,2.28-2.32,4.38-3.1,7.47-3.08,16.01.13,32.03.06,48.04.06v-.08c10.01,0,20.02,0,30.03,0,6.89,0,13.79.02,20.68,0,1.79,0,3.68.17,3.64-2.57-.1-6.88-.04-13.77-.29-20.64-.03-.82-1.46-2.01-2.44-2.28-1.45-.4-3.09-.12-4.64-.12-30.69,0-61.38-.05-92.08.07-3.66.01-6.01-.69-7.78-4.34-2.8-5.75-7.65-9.69-13.54-12.29-15.5-6.84-31.77.05-38.46,15.69-6.2,14.49,1.76,33.06,17.48,37.4Z"/>
  <path class="cls-2" d="M483.24,313.33c-17.5-1.11-39.15,15.01-39.35,38.05-.18,21.49,18.12,40.81,39.42,40.58,22.52-.24,39.33-17.52,39.59-39.36.26-21.37-17.9-39.13-39.67-39.28Z"/>
  <path class="cls-2" d="M717.8,856.81c20.68-.1,37.65-17.21,37.54-37.89-.12-20.61-17.7-37.52-38.85-37.36-19.72.15-36.31,17.35-36.27,37.61-1.16,16.35,13.56,37.75,37.59,37.64Z"/>
  <path class="cls-2" d="M800.19,257.68c-16.83-.06-31.45,15-31.45,32.39,0,17.65,14.98,32.71,32.69,32.88,17.7.17,32.84-15.35,32.7-33.5-.13-16.95-15.89-31.7-33.95-31.77Z"/>
  <path class="cls-2" d="M876.04,405.7c-10.46-.36-22.25,6.59-22.88,22.55-.48,12.3,10.37,22.77,22.87,22.77,12.21,0,22.14-10.15,22.14-22.65,0-12.44-9.99-22.67-22.14-22.67Z"/>
  <path class="cls-2" d="M834.24,684.96c-11.71-.36-22.59,11.34-22.54,23.51.04,11.49,10.68,21.94,22.39,21.99,12.27.05,22.42-10.02,22.07-22.66-.39-14.21-9.7-22.46-21.92-22.84Z"/>
  <path class="cls-2" d="M598.79,874.57c-.09,12.15,9.13,21.61,21.24,21.78,11.67.16,21.66-9.63,21.88-21.44.24-12.38-9.29-22.45-21.31-22.52-11.93-.07-21.72,9.88-21.81,22.18Z"/>
  <path class="cls-2" d="M850.06,377.97c11.6-.1,21.57-10.24,21.48-21.86-.09-11.34-10.62-22.24-21.54-22.3-11.42-.06-21.89,10.79-21.78,22.57.11,11.54,10.38,21.69,21.84,21.59Z"/>
  <path class="cls-2" d="M666.87,366.15c1.61,1.96,7.03.78,10.75,1,0-.07,0-.13.01-.2.22,0,.45.01.67,0,3.68-.27,8.44.71,10.7-1.22,1.82-1.55.76-6.63.7-10.14-.07-3.9.97-9.32-1.12-11.28-2.19-2.06-7.5-.93-11.46-.95-3.51-.03-8.58-1.06-10.15.76-1.94,2.25-1.2,7-1.22,10.67-.02,3.91-.91,8.92,1.11,11.37Z"/>
  <path class="cls-2" d="M611.63,230c1.99,1.99,7.04.91,10.75,1.18,0-.08.01-.17.02-.25,3.1,0,6.21-.04,9.31.02,1.91.03,2.85-.69,2.84-2.7-.05-5.98-.04-11.96-.03-17.93,0-2.18-1.02-3.21-3.24-3.18-3.33.04-6.65-.04-9.98-.06q-10.66-.06-10.66,10.25c0,.66-.03,1.33,0,1.99.2,3.69-.96,8.75,1,10.7Z"/>
  <path class="cls-2" d="M624.9,162.18c2.38,2.04,7.45,1.01,11.37,1.21,2.21.11,4.44-.04,6.66.05,2.43.1,3.68-.71,3.65-3.4-.07-5.76.04-11.52.17-17.28.06-2.41-.67-3.75-3.36-3.71-5.33.09-10.65.09-15.98-.01-2.22-.04-3.29.68-3.22,3.01.09,3.1.02,6.2.02,9.31-.06,0-.12,0-.18,0,.17,3.75-1.08,9.14.87,10.82Z"/>
  <path class="cls-2" d="M692.15,732.61c-5.33.04-10.67-.04-16.01-.17-2.25-.05-3.27.95-3.28,3.13,0,3.11-.03,6.22-.02,9.32q.01,11.32,11.04,11.3c3.55,0,8.58,1.31,10.26-.48,2.02-2.15,1.19-6.97,1.6-10.63-.15-.01-.31-.03-.46-.04,0-3.11-.07-6.22.02-9.32.07-2.28-.87-3.13-3.14-3.11Z"/>
  <path class="cls-2" d="M784.26,211.57c-2.07-1.93-7.11-.79-10.84-.8-11.22-.02-11.22.01-11.23,11.12q-.02,11.79,11.93,11.55,11.2-.23,11.45-11.17c-.31-3.7.71-8.83-1.31-10.71Z"/>
  <path class="cls-2" d="M905.47,546.99c-2.26-1.89-7.01-1.02-10.68-.98-3.71.04-8.81-.81-10.73,1.19-1.96,2.04-.96,7.07-.95,10.79.01,3.47-.85,8.26,1.01,10.04,1.9,1.82,6.64.81,10.13.78,3.72-.03,8.74.99,10.79-.96,2.03-1.93,1.08-7,1.35-9.89-.23-4.35.91-9.44-.93-10.98Z"/>
  <path class="cls-2" d="M513.92,417.25c-2.24-1.93-6.99-1.08-10.66-1.17-3.52-.09-8.66-1.19-10.17.61-1.93,2.29-1.12,7.04-1.15,10.73-.03,3.7-1.02,8.75.93,10.73,1.97,1.99,7.04.92,10.79,1.2,3.47-.28,8.24.7,10.08-1.18,1.84-1.88.76-6.62.95-10.1.01-.22,0-.44,0-.66-.14-3.51,1.06-8.57-.76-10.14Z"/>
  <path class="cls-1" d="M391.66,403.73c.13-49.13.08-98.27.08-147.4,0-48.69,0-97.38,0-146.07,0-1.33-.12-2.68.03-4,.38-3.44-1.01-4.48-4.22-3.33-5.01,1.79-10.04,3.54-15.03,5.37-67.89,24.87-127.51,62.24-176.75,115.62-41.66,45.18-73.7,95.9-92.31,154.8-9.47,29.97-16.12,60.48-18.79,91.71-3.54,41.36-1.59,82.55,6.37,123.41,6.89,35.36,16.54,69.84,31.59,102.68,23.76,51.86,57.21,96.64,100.17,134.06,48.03,41.86,103.07,71.54,163.78,90.8,5.02,1.59,5.05,1.53,5.16-3.94.04-1.78.02-3.56.02-5.34.02-48.47.1-96.94-.05-145.4-.02-5.06,1.35-8.63,5.15-12.1,27.78-25.33,55.33-50.91,83.07-76.28,2.86-2.62,4.36-5.17,4.11-9.11-.33-5.09-.12-10.22-.12-15.34,0-48.91-.06-97.82.11-146.73.02-4.41-1.26-7.47-4.44-10.39-6.55-6.01-12.86-12.29-19.17-18.57-21.62-21.49-43.14-43.06-64.83-64.47-2.95-2.91-3.93-5.92-3.92-9.99ZM256.93,201.75c11.2-.19,21.14,9.96,20.98,21.42-.15,11.21-9.6,20.1-21.35,20.07-11.62-.02-20.06-8.52-20.05-20.2,0-11.19,9.52-21.11,20.42-21.29ZM214.98,260.37c13.1-.55,23.66,4.34,29.84,16.16,2.82,5.38,6.32,6.68,12.05,6.6,23.82-.32,47.64-.12,71.46-.13,5.86,0,5.93-.04,5.96-5.71.05-13.11-.07-26.23.1-39.34.05-3.62-.35-5.32-4.79-5.79-17.96-1.92-33.36-20.31-32.5-38.08,1-20.52,16.98-36.61,36.76-36.63,15.74-.02,28.22,6.25,35.17,20.8,7.15,14.96,5.4,29.36-5.06,42.33-2.52,3.13-3.66,6-3.64,10.11.22,58.23.17,116.46.35,174.7.01,4.08-1.53,4.69-5.04,4.65-14.02-.15-28.05-.06-42.08-.06,0,.06,0,.12,0,.17-13.8,0-27.61-.02-41.41.01-5.33.01-5.04.02-5.01-5.18.03-5.11-.03-10.23.07-15.34.09-4.99.16-5.08,5.25-5.11,18.26-.08,36.51-.06,54.77-.16,7.87-.04,7.01,1.1,7.03-7.17.05-21.12.04-42.23.05-63.35,0-6.21.66-5.93-5.57-5.91-25.83.05-51.65.13-77.48.08-3.55,0-5.97.8-8.31,3.97-7.87,10.66-18.91,14.85-31.74,12.06-13.14-2.86-22.17-11.3-25.99-24.24-5.24-17.78,10.66-38.63,29.73-39.42ZM280.61,432.21c2.01-1.95,7.03-.96,10.74-.96,3.47,0,8.25-.88,10.04.96,1.82,1.88.71,6.61.87,10.09.01.22,0,.44,0,.66-.16,3.49,1.01,8.48-.81,10.08-2.24,1.98-6.98,1.13-9.62,1.41-4.56-.22-9.65.93-11.19-.9-1.92-2.28-1.13-7.02-1.13-10.69,0-3.68-.88-8.74,1.1-10.66ZM272.97,339.81c-.02-2.14.66-3.33,3.01-3.31,5.78.03,11.56.03,17.34-.09,2.41-.05,3.03,1.07,2.94,3.25-.13,2.88-.03,5.77-.03,8.65.1.01.21.03.31.04-.41,3.89.49,9-1.64,11.29-1.8,1.93-7.13.6-10.89.67-2.67.05-5.34-.05-8,.04-2.35.09-3.09-1.04-3.06-3.23.08-5.77.08-11.54.03-17.31ZM208.86,359.58c22.35.59,39.68,18.77,38.95,39.85-.75,21.54-18.32,38.65-39.15,37.94-25.97-.88-39.66-20.74-39.37-39.39.38-23.95,20.32-38.91,39.57-38.4ZM163.71,331.47c3.71.05,8.77-.92,10.73,1.04,1.95,1.96.95,7.01.97,10.71.07,10.68.02,10.68-10.77,10.68h-.66c0,.05,0,.11,0,.16-3.51-.17-8.59.98-10.14-.85-1.92-2.27-1.13-7-1.15-10.67-.07-11.18,0-11.23,11.02-11.08ZM124.02,416.2c1.99-2.08,7.42-1.06,11.34-1.1,10.74-.11,10.74-.04,10.74,10.7,0,3.33-.07,6.66.03,9.98.06,2.18-.65,3.29-3.01,3.2-2.88-.11-5.78-.03-8.67-.03-.01.12-.02.24-.03.36-3.68-.37-8.46.5-10.71-1.49-1.82-1.61-.74-6.65-.69-10.17.05-3.95-1.07-9.28,1.01-11.45ZM114.61,500.13c-2.72.2-3.39-1.15-3.35-3.62.11-6.22.25-12.46-.07-18.66-.2-3.76,1.38-4.41,4.65-4.38,17.14.13,34.28.08,51.41.09,12.46,0,24.93,0,37.39,0v-.08c28.71,0,57.42,0,86.14,0,1.78,0,3.62-.26,5.32.13.92.21,1.78,1.43,2.29,2.39.37.71.11,1.74.12,2.63.23,51.33.46,102.66.69,153.99,0,.67.07,1.35-.04,2-.16,1.01-.44,2.01-.67,3.01-.93-.4-2.04-.61-2.76-1.25-3.65-3.26-7.22-6.6-10.76-9.97-4.02-3.82-9.5-7.05-11.52-11.74-2.03-4.71-.64-10.92-.64-16.47,0-30.44.05-60.89.02-91.33,0-7.25,1.25-6.85-6.63-6.85-48.97.03-97.93.06-146.9.09-1.56,0-3.12-.1-4.67.02ZM282.31,662.84c0,14.88-12.06,26.91-27.11,27.07-15.06.16-27.85-12.25-27.95-27.11-.1-15.04,12.4-27.9,27.16-27.94,15.26-.05,27.91,12.64,27.9,27.98ZM128.68,575.03c-11.63-12.49-11.04-32.61,1.32-44.48,12.42-11.92,33.45-11.94,45.3-.03.94.94,2.07,1.85,2.62,3,3.04,6.33,8.1,7.35,14.69,7.14,15.78-.51,31.58-.18,47.38-.22,5.31-.01,5.22-.33,5.2,4.94-.04,8.44,0,16.88,0,25.32h-.1c0,8.66.16,17.33-.11,25.98-.07,2.2-.94,4.92-2.43,6.43-6.71,6.78-13.77,13.22-20.75,19.74-.58.54-1.48.75-2.24,1.11-.14-.84-.41-1.67-.42-2.51-.09-16.43-.11-32.87-.23-49.3-.05-7.19.17-6.41-6.61-6.38-7.56.04-15.13.35-22.69.11-4.56-.15-7.02,1.68-9.55,5.44-11.82,17.62-36.88,19.27-51.37,3.71ZM135.02,642.59c.37-17.82,14.17-31.66,32.03-31.43,14.71.19,30.97,11.33,30.96,32.48,0,17.19-13.93,30.49-32,30.46-17.13.72-31.34-14.92-30.99-31.5ZM195.76,738.06c-11.4-.2-21.11-10.09-21.08-21.47.03-11.5,10.27-21.51,21.93-21.42,11.44.09,21.26,10.54,20.99,22.34-.26,11.58-10.02,20.75-21.84,20.55ZM288.82,795.45c.4-16.73,15.92-31.43,32.74-31.03,18.38.44,33.12,15.12,32.66,32.53-.48,18.07-15.44,32.67-33.07,32.26-17.91-.42-32.76-15.92-32.33-33.76ZM347.52,723.44c3.9-.05,7.81.43,11.72.67.15,3.71.52,7.43.4,11.14-.12,3.59.51,8.43-1.49,10.37-1.82,1.77-6.72.37-10.26.37,0,.14-.01.28-.02.43-3.72-.25-8.76.84-10.77-1.14-1.96-1.94-1-7-1.01-10.7-.07-13.54-.69-10.99,11.42-11.14ZM359.05,874.37c-1.78,1.84-6.57,1.01-10.02.94-4.06-.08-8.12-.6-12.18-.94-.11-3.94-.32-7.89-.32-11.83,0-10.32.04-10.32,10.69-10.35.22,0,.44-.01.66,0,3.73.12,9.08-1.19,10.79.73,2.1,2.35,1.16,7.41,1.46,10.43-.28,4.4.77,9.11-1.08,11.02ZM391.54,715.35c-1.64,1.94-7,.87-10.71.9-11.05.09-11.05.05-10.88-11.07,0-.22,0-.44,0-.66-.09,0-.19-.02-.28-.03.35-3.7-.61-8.7,1.41-10.72,1.99-1.98,7.01-1.06,10.7-1.13,3.48-.07,8.64-1.09,10.05.69,1.88,2.36,1.05,7.04.99,10.71-.06,3.89.76,8.89-1.29,11.31ZM439.43,515.05c1.61,1.56,2.24,4.75,2.27,7.21.35,24.68.58,49.36.59,74.04,0,4.33,1.07,7.09,4.81,9.82,17.87,13.06,21,36.62,7,52.61-10.02,11.44-22.92,14.98-37.5,10.92-14.01-3.9-23.44-13.06-25.88-27.53-2.47-14.69,2.49-27.14,14.62-36.34.53-.4,1.05-.91,1.66-1.1,8.1-2.4,9.18-8.15,8.96-15.77-.54-18.22-.25-36.46-.1-54.7.03-3.56-.8-6.27-3.43-8.8-7.54-7.25-14.91-14.67-22.2-22.17-2.18-2.24-4.43-3.29-7.59-3.16-5.56.23-11.13.05-16.7.06-4.61.01-5.04-.9-5.03,5.13.03,26.68.01,53.37.01,80.05h-.12c0,25.57-.25,51.15.17,76.71.11,6.7-2.2,11.25-6.77,15.7-20.88,20.34-41.61,40.82-62.29,61.36-18.94,18.81-37.79,37.71-56.55,56.7-2.03,2.06-3.21,2.37-5.28.32-4.57-4.55-9.2-9.05-14.02-13.32-2.44-2.16-2.4-3.56-.08-5.81,8.15-7.89,16.12-15.98,24.15-24,29.91-29.88,59.76-59.82,89.81-89.56,3.49-3.46,4.58-6.96,4.57-11.7-.1-69.38-.03-138.76,0-208.13,0-8.84-.65-8,7.77-8.05,4.68-.03,9.36.17,14.03-.07,3.43-.17,4.67.91,4.58,4.49-.24,9.11-.12,18.23-.1,27.35.01,5.77.05,5.83,5.7,5.85,7.79.04,15.59.16,23.37-.13,3.12-.12,5.68.46,7.91,2.56,13.93,13.11,27.94,26.13,41.67,39.45Z"/>
  <path class="cls-1" d="M622.39,760.79c-7.88.39-15.38,8.49-15.3,16.54.08,7.99,7.22,15.54,14.8,14.97,9.43-.71,16.46-6.9,16.34-15.86-.17-8.34-7.96-16.04-15.84-15.65Z"/>
  <path class="cls-1" d="M821.56,573.87c8.7.09,15.98-6.86,15.98-15.25,0-7.76-7.36-15.02-15.49-15.29-7.9-.26-16.06,7.62-16.04,15.49.02,7.87,7.35,14.96,15.55,15.05Z"/>
  <path class="cls-2" d="M389.85,473.03c-7.78.29-15.58.17-23.37.13-5.65-.03-5.69-.09-5.7-5.85-.02-9.12-.14-18.24.1-27.35.09-3.58-1.15-4.66-4.58-4.49-4.67.23-9.35.03-14.03.07-8.41.06-7.76-.79-7.77,8.05-.04,69.38-.1,138.76,0,208.13,0,4.74-1.08,8.24-4.57,11.7-30.05,29.74-59.9,59.68-89.81,89.56-8.03,8.02-15.99,16.11-24.15,24-2.33,2.25-2.37,3.65.08,5.81,4.82,4.27,9.45,8.77,14.02,13.32,2.07,2.06,3.24,1.74,5.28-.32,18.76-18.99,37.61-37.89,56.55-56.7,20.68-20.54,41.41-41.03,62.29-61.36,4.57-4.45,6.88-9.01,6.77-15.7-.42-25.57-.17-51.14-.17-76.71h.12c0-26.68.02-53.37-.01-80.05,0-6.03.43-5.12,5.03-5.13,5.57-.01,11.14.16,16.7-.06,3.17-.13,5.42.92,7.59,3.16,7.29,7.5,14.66,14.92,22.2,22.17,2.64,2.54,3.46,5.25,3.43,8.8-.15,18.23-.44,36.48.1,54.7.23,7.62-.86,13.37-8.96,15.77-.61.18-1.13.69-1.66,1.1-12.13,9.2-17.09,21.65-14.62,36.34,2.44,14.47,11.87,23.63,25.88,27.53,14.57,4.06,27.48.52,37.5-10.92,14-15.99,10.87-39.55-7-52.61-3.73-2.73-4.81-5.49-4.81-9.82,0-24.68-.24-49.36-.59-74.04-.03-2.45-.67-5.64-2.27-7.21-13.72-13.32-27.74-26.34-41.67-39.45-2.23-2.1-4.79-2.68-7.91-2.56ZM441.49,635.29c-.11,8.52-7.25,15.14-16.2,15.02-8-.1-15.06-7.63-14.83-15.82.23-8.08,8.27-15.53,16.43-15.21,8.18.32,14.7,7.47,14.59,16Z"/>
  <path class="cls-2" d="M211.23,324.03c12.83,2.8,23.86-1.4,31.74-12.06,2.34-3.17,4.75-3.98,8.31-3.97,25.83.04,51.65-.03,77.48-.08,6.23-.01,5.57-.3,5.57,5.91,0,21.12,0,42.23-.05,63.35-.02,8.27.83,7.13-7.03,7.17-18.26.1-36.51.07-54.77.16-5.09.02-5.16.11-5.25,5.11-.1,5.11-.04,10.22-.07,15.34-.03,5.2-.32,5.19,5.01,5.18,13.8-.03,27.61-.01,41.41-.01,0-.06,0-.12,0-.17,14.03,0,28.05-.09,42.08.06,3.51.04,5.05-.57,5.04-4.65-.18-58.23-.13-116.46-.35-174.7-.02-4.11,1.12-6.98,3.64-10.11,10.46-12.96,12.21-27.37,5.06-42.33-6.95-14.55-19.43-20.82-35.17-20.8-19.78.03-35.77,16.11-36.76,36.63-.86,17.77,14.54,36.16,32.5,38.08,4.44.47,4.84,2.18,4.79,5.79-.18,13.11-.05,26.23-.1,39.34-.02,5.67-.09,5.71-5.96,5.71-23.82.01-47.65-.19-71.46.13-5.74.08-9.24-1.22-12.05-6.6-6.18-11.82-16.74-16.7-29.84-16.16-19.07.79-34.97,21.64-29.73,39.42,3.82,12.94,12.85,21.38,25.99,24.24Z"/>
  <path class="cls-2" d="M272.81,506.87c.03,30.44-.03,60.89-.02,91.33,0,5.55-1.39,11.75.64,16.47,2.02,4.7,7.51,7.92,11.52,11.74,3.54,3.37,7.12,6.71,10.76,9.97.72.64,1.83.84,2.76,1.25.23-1,.51-2,.67-3.01.1-.65.04-1.33.04-2-.23-51.33-.46-102.66-.69-153.99,0-.89.25-1.92-.12-2.63-.5-.96-1.37-2.18-2.29-2.39-1.69-.39-3.54-.13-5.32-.13-28.71,0-57.42,0-86.14,0v.08c-12.46,0-24.93,0-37.39,0-17.14,0-34.28.03-51.41-.09-3.27-.02-4.84.63-4.65,4.38.32,6.21.18,12.44.07,18.66-.04,2.47.63,3.83,3.35,3.62,1.55-.12,3.11-.02,4.67-.02,48.97-.03,97.93-.06,146.9-.09,7.88,0,6.63-.4,6.63,6.85Z"/>
  <path class="cls-2" d="M180.05,571.32c2.53-3.77,4.99-5.59,9.55-5.44,7.55.24,15.12-.07,22.69-.11,6.78-.04,6.56-.82,6.61,6.38.11,16.43.14,32.87.23,49.3,0,.84.27,1.67.42,2.51.75-.36,1.65-.57,2.24-1.11,6.98-6.52,14.04-12.96,20.75-19.74,1.49-1.51,2.36-4.23,2.43-6.43.27-8.65.11-17.32.11-25.98h.1c0-8.44-.03-16.88,0-25.32.02-5.27.11-4.95-5.2-4.94-15.79.04-31.6-.29-47.38.22-6.59.21-11.65-.81-14.69-7.14-.55-1.15-1.68-2.06-2.62-3-11.85-11.91-32.88-11.89-45.3.03-12.36,11.86-12.95,31.99-1.32,44.48,14.49,15.56,39.54,13.91,51.37-3.71Z"/>
  <path class="cls-2" d="M208.66,437.37c20.82.71,38.4-16.39,39.15-37.94.73-21.08-16.6-39.26-38.95-39.85-19.24-.51-39.19,14.45-39.57,38.4-.3,18.64,13.4,38.51,39.37,39.39Z"/>
  <path class="cls-2" d="M354.22,796.96c.46-17.41-14.28-32.1-32.66-32.53-16.82-.4-32.34,14.31-32.74,31.03-.43,17.84,14.42,33.34,32.33,33.76,17.62.41,32.59-14.19,33.07-32.26Z"/>
  <path class="cls-2" d="M198.02,643.64c0-21.15-16.25-32.29-30.96-32.48-17.86-.23-31.66,13.62-32.03,31.43-.35,16.58,13.86,32.22,30.99,31.5,18.07.03,32-13.27,32-30.46Z"/>
  <path class="cls-2" d="M254.41,634.86c-14.76.04-27.26,12.91-27.16,27.94.1,14.86,12.89,27.27,27.95,27.11,15.05-.16,27.1-12.19,27.11-27.07,0-15.34-12.64-28.03-27.9-27.98Z"/>
  <path class="cls-2" d="M196.61,695.17c-11.66-.09-21.9,9.92-21.93,21.42-.03,11.38,9.68,21.27,21.08,21.47,11.82.21,21.57-8.97,21.84-20.55.27-11.81-9.55-22.26-20.99-22.34Z"/>
  <path class="cls-2" d="M256.57,243.24c11.75.02,21.2-8.86,21.35-20.07.15-11.46-9.79-21.61-20.98-21.42-10.89.18-20.41,10.11-20.42,21.29,0,11.68,8.43,20.18,20.05,20.2Z"/>
  <path class="cls-2" d="M276,360.36c2.66-.1,5.34,0,8-.04,3.77-.07,9.09,1.26,10.89-.67,2.13-2.28,1.23-7.4,1.64-11.29-.1-.01-.21-.03-.31-.04,0-2.88-.09-5.77.03-8.65.09-2.18-.53-3.3-2.94-3.25-5.78.11-11.56.12-17.34.09-2.36-.01-3.03,1.17-3.01,3.31.06,5.77.05,11.54-.03,17.31-.03,2.19.71,3.32,3.06,3.23Z"/>
  <path class="cls-2" d="M391.83,693.33c-1.42-1.78-6.57-.76-10.05-.69-3.69.07-8.71-.84-10.7,1.13-2.03,2.01-1.07,7.02-1.41,10.72.09,0,.19.02.28.03,0,.22,0,.44,0,.66-.17,11.12-.17,11.17,10.88,11.07,3.71-.03,9.07,1.04,10.71-.9,2.05-2.42,1.23-7.42,1.29-11.31.05-3.68.88-8.35-.99-10.71Z"/>
  <path class="cls-2" d="M123.7,437.82c2.25,1.99,7.03,1.12,10.71,1.49.01-.12.02-.24.03-.36,2.89,0,5.78-.09,8.67.03,2.37.09,3.08-1.02,3.01-3.2-.1-3.33-.03-6.66-.03-9.98,0-10.74,0-10.8-10.74-10.7-3.92.04-9.35-.98-11.34,1.1-2.07,2.17-.96,7.5-1.01,11.45-.05,3.52-1.13,8.56.69,10.17Z"/>
  <path class="cls-2" d="M337.11,745.28c2,1.98,7.05.89,10.77,1.14,0-.14.01-.28.02-.43,3.54,0,8.43,1.39,10.26-.37,2-1.93,1.38-6.78,1.49-10.37.12-3.71-.25-7.43-.4-11.14-3.91-.24-7.82-.72-11.72-.67-12.11.15-11.49-2.4-11.42,11.14.02,3.69-.95,8.76,1.01,10.7Z"/>
  <path class="cls-2" d="M360.13,863.35c-.29-3.02.64-8.07-1.46-10.43-1.71-1.92-7.06-.61-10.79-.73-.22,0-.44,0-.66,0-10.65.03-10.69.03-10.69,10.35,0,3.94.21,7.89.32,11.83,4.06.33,8.11.85,12.18.94,3.46.07,8.24.9,10.02-.94,1.85-1.91.8-6.62,1.08-11.02Z"/>
  <path class="cls-2" d="M280.64,453.56c1.54,1.83,6.63.68,11.19.9,2.64-.27,7.38.57,9.62-1.41,1.82-1.61.65-6.6.81-10.08,0-.22.01-.44,0-.66-.17-3.48.95-8.21-.87-10.09-1.79-1.84-6.57-.96-10.04-.96-3.7,0-8.73-.99-10.74.96-1.98,1.92-1.1,6.98-1.1,10.66,0,3.68-.79,8.41,1.13,10.69Z"/>
  <path class="cls-2" d="M153.84,353.22c1.55,1.83,6.62.68,10.14.85,0-.05,0-.11,0-.16h.66c10.79,0,10.84,0,10.77-10.68-.03-3.7.98-8.75-.97-10.71-1.96-1.96-7.03-.99-10.73-1.04-11.03-.15-11.09-.1-11.02,11.08.02,3.67-.77,8.4,1.15,10.67Z"/>
  <path class="cls-1" d="M410.46,634.5c-.23,8.18,6.83,15.71,14.83,15.82,8.95.12,16.09-6.51,16.2-15.02.11-8.54-6.41-15.69-14.59-16-8.16-.32-16.21,7.13-16.43,15.21Z"/>
</svg>
